<?xml version="1.0" standalone="no"?>
<!DOCTYPE svg PUBLIC "-//W3C//DTD SVG 20010904//EN"
 "http://www.w3.org/TR/2001/REC-SVG-20010904/DTD/svg10.dtd">
<svg version="1.0" xmlns="http://www.w3.org/2000/svg"
 width="512.000000pt" height="512.000000pt" viewBox="0 0 512.000000 512.000000"
 preserveAspectRatio="xMidYMid meet">

<g transform="translate(0.000000,512.000000) scale(0.100000,-0.100000)"
fill="#000000" stroke="none">
<path d="M2880 4788 l0 -85 41 -6 c61 -8 146 -56 194 -110 39 -43 85 -135 85
-171 0 -8 34 -25 78 -41 98 -36 291 -131 385 -192 251 -161 484 -396 637 -642
163 -262 264 -555 301 -865 12 -101 7 -469 -6 -513 l-7 -23 199 0 200 0 7 76
c12 132 7 414 -9 539 -123 943 -768 1723 -1670 2020 -105 35 -294 79 -382 91
l-53 7 0 -85z"/>
<path d="M1870 4795 c-545 -161 -1024 -513 -1340 -985 -215 -321 -344 -665
-395 -1057 -16 -123 -21 -406 -9 -537 l7 -76 200 0 199 0 -7 22 c-3 13 -9 118
-12 233 -6 237 7 364 56 558 92 363 273 679 540 948 170 170 337 289 562 400
l87 42 5 54 c12 114 92 227 196 274 l51 24 0 67 c0 48 -4 68 -12 68 -7 -1 -65
-16 -128 -35z"/>
<path d="M446 1223 c251 -434 658 -799 1119 -1005 475 -212 1021 -266 1534
-152 635 142 1194 543 1544 1106 l58 93 -151 3 c-87 1 -158 -2 -169 -8 -10 -5
-32 -34 -49 -63 -55 -97 -174 -177 -263 -177 -25 0 -47 -15 -108 -71 -320
-300 -743 -494 -1178 -540 l-112 -12 -27 -51 c-37 -70 -53 -86 -84 -86 -32 0
-49 18 -83 86 l-26 51 -113 12 c-437 47 -859 241 -1181 541 l-75 70 -89 0
c-180 0 -251 39 -404 219 -25 29 -30 31 -99 31 l-72 0 28 -47z"/>
</g>
</svg>
