<?xml version="1.0" encoding="UTF-8"?>
<svg version="1.1" xmlns="http://www.w3.org/2000/svg" width="512" height="512">
<path d="M0 0 C0.72392441 -0.00671722 1.44784882 -0.01343445 2.19371033 -0.02035522 C4.58835707 -0.03936249 6.98272391 -0.04326083 9.37744141 -0.04541016 C11.04269527 -0.05183648 12.70794799 -0.05856472 14.37319946 -0.06558228 C17.86519996 -0.07756206 21.35710149 -0.08126241 24.84912109 -0.08007812 C29.32048499 -0.07987496 33.79121312 -0.107171 38.26242638 -0.14162254 C41.70257472 -0.16387779 45.14256978 -0.16791609 48.58278275 -0.16685867 C50.23099584 -0.16921694 51.87921302 -0.17805325 53.52735519 -0.19352341 C55.83509357 -0.21315533 58.14145748 -0.20735747 60.44921875 -0.1953125 C61.76143402 -0.19816254 63.07364929 -0.20101257 64.42562866 -0.20394897 C68.42030891 0.3722058 70.0625005 1.42266666 72.85400391 4.29052734 C73.75639138 6.99768977 73.97251693 8.52829503 73.95166016 11.30224609 C73.9484375 12.05957031 73.94521484 12.81689453 73.94189453 13.59716797 C73.93351562 14.38285156 73.92513672 15.16853516 73.91650391 15.97802734 C73.91199219 16.7753125 73.90748047 17.57259766 73.90283203 18.39404297 C73.89106241 20.35956991 73.87312739 22.32505819 73.85400391 24.29052734 C74.82660156 24.29439453 74.82660156 24.29439453 75.81884766 24.29833984 C131.14148884 26.47925868 187.05831266 61.57275155 223.85400391 101.29052734 C226.98414234 104.86285994 229.93957093 108.5411487 232.85400391 112.29052734 C233.64162109 113.27279297 234.42923828 114.25505859 235.24072266 115.26708984 C252.59298606 137.07234611 266.01475072 161.87012768 274.85400391 188.29052734 C275.13324707 189.12390625 275.41249023 189.95728516 275.70019531 190.81591797 C278.69538621 199.9196059 281.18154514 209.08818943 283.10400391 218.47802734 C283.25514648 219.212229 283.40628906 219.94643066 283.56201172 220.70288086 C286.51160035 236.08168975 287.2305012 251.29283519 287.16650391 266.91552734 C287.16401642 267.88707764 287.16152893 268.85862793 287.15896606 269.85961914 C286.92058634 330.07743403 265.03101542 388.02117109 223.85400391 432.29052734 C222.68278242 433.64075648 221.51593158 434.99479226 220.35400391 436.35302734 C213.68327907 443.97234149 206.46973249 450.73646231 198.50585938 456.98925781 C197.34123367 457.90670609 196.18187129 458.83085516 195.02636719 459.75976562 C161.78909308 486.45446587 122.00719377 503.87851155 79.85400391 510.29052734 C78.68740234 510.47309082 77.52080078 510.6556543 76.31884766 510.84375 C65.07952516 512.43901784 53.9449632 512.68967391 42.60400391 512.66552734 C41.63967438 512.66498352 40.67534485 512.6644397 39.68179321 512.66387939 C-15.42939442 512.52151884 -70.75817236 494.16372881 -113.14599609 458.29052734 C-113.75636719 457.78021973 -114.36673828 457.26991211 -114.99560547 456.74414062 C-127.54149645 446.22848429 -139.05880769 435.23426467 -149.14599609 422.29052734 C-149.94650391 421.28376953 -150.74701172 420.27701172 -151.57177734 419.23974609 C-175.73914776 388.64066056 -191.12278856 353.52636878 -199.39599609 315.54052734 C-199.54713867 314.85780762 -199.69828125 314.17508789 -199.85400391 313.47167969 C-202.97785533 298.28609493 -203.52032434 283.11746492 -203.45849609 267.66552734 C-203.45634094 266.69497406 -203.45418579 265.72442078 -203.45196533 264.72445679 C-203.40092949 250.39621837 -203.05358048 236.36866952 -200.14599609 222.29052734 C-199.94731934 221.30745605 -199.74864258 220.32438477 -199.54394531 219.31152344 C-188.0372876 163.98475501 -158.13366051 111.25993036 -113.14599609 76.29052734 C-112.16373047 75.50291016 -111.18146484 74.71529297 -110.16943359 73.90380859 C-85.2482654 54.07195386 -46.10379626 28.29052734 -13.14599609 28.29052734 C-13.16956177 27.37557495 -13.16956177 27.37557495 -13.19360352 26.44213867 C-13.25619422 23.66253024 -13.29506232 20.88307043 -13.33349609 18.10302734 C-13.35863281 17.14332031 -13.38376953 16.18361328 -13.40966797 15.19482422 C-13.50308764 6.19539606 -13.50308764 6.19539606 -10.14599609 2.29052734 C-6.41481524 -0.19692656 -4.46016791 0.02594376 0 0 Z " fill="#CB97E6" transform="translate(214.14599609375,-0.29052734375)"/>
<path d="M0 0 C4.21966608 2.89348531 5.84311028 7.17269038 7 12 C8.16085649 20.55956833 5.81374892 27.63383788 1.1875 34.8125 C-0.69477035 36.69477035 -2.47200374 38.11563561 -4.63671875 39.63671875 C-5.58164185 40.30320435 -5.58164185 40.30320435 -6.5456543 40.9831543 C-7.02558838 41.31871338 -7.50552246 41.65427246 -8 42 C-6.81506958 42.00142502 -5.63013916 42.00285004 -4.40930176 42.00431824 C6.77266387 42.02100774 17.95426649 42.06384136 29.13603973 42.13209057 C34.88436574 42.16634079 40.63242651 42.19146756 46.38085938 42.19555664 C51.93133768 42.1998437 57.48121786 42.22834111 63.0315094 42.27343178 C65.14608778 42.2863936 67.26073778 42.29071915 69.37535095 42.28615379 C72.34398506 42.28123861 75.31087725 42.30738186 78.27929688 42.34057617 C79.14820557 42.33195053 80.01711426 42.32332489 80.91235352 42.31443787 C87.04566282 42.42895648 91.27626413 44.03224388 96 48 C99.6186251 52.28890549 100.61537253 56.28297529 100.3125 61.8671875 C99.32260677 68.62320882 95.11330738 72.04944471 90 76 C90.99 76.01417969 91.98 76.02835937 93 76.04296875 C107.42738934 76.47036578 107.42738934 76.47036578 113 82 C116.66552457 86.22218017 117.61253948 90.33520957 117.3125 95.8671875 C116.43310094 101.86908608 113.16757084 105.08367437 108.71875 108.80078125 C105.03715623 111.36952963 101.16488758 111.28298887 96.8125 111.5625 C95.54019531 111.64628906 94.26789063 111.73007812 92.95703125 111.81640625 C91.98121094 111.87699219 91.00539062 111.93757813 90 112 C91.36125 112.7734375 91.36125 112.7734375 92.75 113.5625 C96.33090475 115.98936909 98.57990564 118.90820268 100 123 C100.87638428 128.65218625 100.29523507 133.21659425 97 138 C91.5139575 143.5249506 87.66204347 145.05840088 79.8125 145.5625 C78.54019531 145.64628906 77.26789063 145.73007812 75.95703125 145.81640625 C74.98121094 145.87699219 74.00539062 145.93757812 73 146 C74.36125 146.7734375 74.36125 146.7734375 75.75 147.5625 C79.33090475 149.98936909 81.57990564 152.90820268 83 157 C83.87638428 162.65218625 83.29523507 167.21659425 80 172 C75.26284462 176.77075223 71.79995808 179.1149827 64.92980957 179.14717102 C63.3571936 179.15790398 63.3571936 179.15790398 61.75280762 179.16885376 C60.60268188 179.17154266 59.45255615 179.17423157 58.26757812 179.17700195 C56.45 179.18685875 56.45 179.18685875 54.59570312 179.19691467 C50.57421625 179.21666957 46.55276931 179.22832072 42.53125 179.23828125 C41.14375285 179.24233032 39.7562559 179.24644728 38.36875916 179.25063133 C31.84458676 179.26968576 25.32042566 179.28391219 18.79623079 179.2922433 C11.28447008 179.30199528 3.77300564 179.32825992 -3.7386508 179.36874419 C-9.55539801 179.39900842 -15.37206086 179.41372217 -21.18888521 179.41702431 C-24.65738357 179.41936452 -28.12556556 179.42818801 -31.59397888 179.45348549 C-35.47355363 179.48132304 -39.35274648 179.4769037 -43.23242188 179.4699707 C-44.36635376 179.48278076 -45.50028564 179.49559082 -46.6685791 179.50878906 C-57.37920821 179.43934482 -66.34139549 176.28388175 -75 170 C-75.83402344 169.40574219 -76.66804688 168.81148437 -77.52734375 168.19921875 C-80.25361923 165.77442713 -81.46174825 163.50407546 -83.1875 160.3125 C-85.1888332 157.39016492 -86.63406606 155.38694657 -90.12353516 154.3984375 C-95.41390563 153.65668594 -100.67489122 153.75536359 -106 154 C-119.30288929 128.10221833 -133 97.62277789 -133 68 C-119.14 68 -105.28 68 -91 68 C-90.67 65.03 -90.34 62.06 -90 59 C-88.90625 55.99609375 -88.90625 55.99609375 -87.5 53.4375 C-87.0565625 52.59058594 -86.613125 51.74367188 -86.15625 50.87109375 C-79.97648215 42.64259852 -71.6158265 37.67604558 -62.75 32.75 C-61.01702933 31.76882107 -59.28406109 30.78763773 -57.55137634 29.80595398 C-55.81195116 28.82272019 -54.06931286 27.84517781 -52.32666016 26.86767578 C-47.51556258 24.16659722 -42.7265112 21.4274793 -37.9375 18.6875 C-37.0928418 18.20579346 -36.24818359 17.72408691 -35.37792969 17.2277832 C-28.3736549 13.22972569 -21.41236207 9.16096378 -14.46875 5.05859375 C-13.87054443 4.70595459 -13.27233887 4.35331543 -12.65600586 3.98999023 C-11.1648984 3.09857924 -9.69245799 2.1761198 -8.22265625 1.25 C-5.24520012 -0.42449202 -3.36231898 -0.50077091 0 0 Z " fill="#FEDECE" transform="translate(146,231)"/>
<path d="M0 0 C14.29826624 -1.94071595 14.29826624 -1.94071595 18.64160156 1.17919922 C21.06583327 3.78893293 22.90264235 6.7256612 24.80859375 9.72265625 C29.94832176 17.40934395 40.0556223 22.10919622 49 24 C50.63294078 24.09006365 52.26908967 24.1288989 53.9045105 24.13130188 C54.89106125 24.13531006 55.877612 24.13931824 56.89405823 24.14344788 C57.97042038 24.14291916 59.04678253 24.14239044 60.15576172 24.1418457 C61.29453262 24.14532013 62.43330353 24.14879456 63.60658264 24.15237427 C66.08215725 24.15972951 68.55773845 24.16507613 71.03332138 24.16866493 C74.96091783 24.17583829 78.88838991 24.19151403 82.81594849 24.21000671 C84.16391558 24.21634421 85.51188273 24.22266983 86.85984993 24.22898388 C87.87254806 24.2337326 87.87254806 24.2337326 88.90570474 24.23857725 C98.04421658 24.28052413 107.18268744 24.31357175 116.32128906 24.32592773 C123.15361185 24.33526017 129.98561411 24.36549425 136.81781387 24.40724754 C139.41309373 24.41950432 142.0084176 24.42468861 144.60372543 24.42244911 C169.21108177 24.40644843 169.21108177 24.40644843 179.20684814 28.02159119 C184.57402513 29.90165126 190.26180082 30.46376544 195.875 31.25 C197.05191406 31.42273438 198.22882813 31.59546875 199.44140625 31.7734375 C202.29315858 32.19076711 205.14584036 32.59952915 208 33 C204.42705882 44.2060428 199.95416975 49.78797366 189.53515625 55.2109375 C188.36855469 55.80132812 187.20195312 56.39171875 186 57 C183.65124093 58.30824218 181.32598097 59.65134692 179 61 C179 62.98 179 64.96 179 67 C179.58378418 67.26925293 180.16756836 67.53850586 180.76904297 67.81591797 C194.77776049 74.47870188 203.16303283 80.68297881 209.18823242 95.19750977 C210.06400213 97.27378317 210.06400213 97.27378317 212 100 C215.34138547 100.23426243 215.34138547 100.23426243 219 99 C221.16939684 96.20205019 222.45732273 93.04120713 223.875 89.8125 C227.49044158 82.31643394 230.19546883 77.50433719 238 74 C239.98193767 72.87988895 241.96105073 71.75476723 243.9375 70.625 C248.72307692 68 248.72307692 68 251 68 C251 65.36 251 62.72 251 60 C250.32839844 59.74347656 249.65679687 59.48695313 248.96484375 59.22265625 C238.86363603 55.05707257 229.89769864 51.26998048 225 41 C224.38125 39.865625 223.7625 38.73125 223.125 37.5625 C222 35 222 35 222 33 C222.71430176 32.89977539 223.42860352 32.79955078 224.16455078 32.69628906 C227.48622213 32.22428743 230.80552449 31.73719575 234.125 31.25 C235.24777344 31.09273438 236.37054688 30.93546875 237.52734375 30.7734375 C243.23131707 29.92599004 248.48913796 28.86841272 253.93041992 26.95019531 C263.43879039 24.19920526 272.94242029 24.46305289 282.77477074 24.5141449 C286.23629281 24.53159442 289.69699358 24.5237989 293.15852356 24.5098877 C300.50157358 24.48470362 307.84442446 24.49002642 315.1875 24.5 C323.71521748 24.51156442 332.24253001 24.51026325 340.77019691 24.47593689 C344.16418773 24.46888766 347.55752284 24.48545806 350.95146179 24.50305176 C353.048618 24.4973406 355.14577158 24.49052171 357.24291992 24.48242188 C358.17255554 24.49373642 359.10219116 24.50505096 360.05999756 24.51670837 C369.31075994 24.43187562 379.27344417 21.69275404 386 15 C388.92447882 11.18546241 391.40320244 7.1594846 393.60180664 2.88793945 C396 0 396 0 399.57519531 -0.68115234 C400.99319346 -0.68020788 402.41142525 -0.64661261 403.828125 -0.5859375 C404.95163361 -0.57320297 404.95163361 -0.57320297 406.09783936 -0.56021118 C408.48337469 -0.5266993 410.86549212 -0.45143886 413.25 -0.375 C414.86974273 -0.34489687 416.48953863 -0.31752165 418.109375 -0.29296875 C422.07422775 -0.22691723 426.03653509 -0.12342313 430 0 C423.11828713 17.73183629 409.80045607 33.23824486 397 47 C395.82877852 48.35022913 394.66192767 49.70426491 393.5 51.0625 C386.82927516 58.68181415 379.61572859 65.44593497 371.65185547 71.69873047 C370.48722976 72.61617874 369.32786739 73.54032782 368.17236328 74.46923828 C334.93508917 101.16393852 295.15318986 118.5879842 253 125 C251.83339844 125.18256348 250.66679687 125.36512695 249.46484375 125.55322266 C238.22552125 127.1484905 227.09095929 127.39914657 215.75 127.375 C214.78567047 127.37445618 213.82134094 127.37391235 212.82778931 127.37335205 C157.71660168 127.2309915 102.38782374 108.87320146 60 73 C59.38962891 72.48969238 58.77925781 71.97938477 58.15039062 71.45361328 C45.60449964 60.93795695 34.0871884 49.94373733 24 37 C23.19949219 35.99324219 22.39898437 34.98648438 21.57421875 33.94921875 C0 6.60250704 0 6.60250704 0 0 Z " fill="#AF66DA" transform="translate(41,385)"/>
<path d="M0 0 C53.29693785 0 108.07979109 34.17885923 144.8125 70.5625 C150.27440589 76.06916227 155.23868252 81.87462941 160 88 C160.78761719 88.98226562 161.57523438 89.96453125 162.38671875 90.9765625 C179.73898215 112.78181877 193.16074682 137.57960034 202 164 C202.27924316 164.83337891 202.55848633 165.66675781 202.84619141 166.52539062 C205.8413823 175.62907856 208.32754123 184.79766209 210.25 194.1875 C210.40114258 194.92170166 210.55228516 195.65590332 210.70800781 196.41235352 C213.53203376 211.13649334 214.30308433 225.62443777 214.20581055 240.58691406 C214.18734804 243.52417567 214.18530315 246.46112335 214.18554688 249.3984375 C214.18063656 251.29687769 214.17481038 253.19531579 214.16796875 255.09375 C214.16685593 255.95641479 214.1657431 256.81907959 214.16459656 257.70788574 C214.04675362 272.95324638 214.04675362 272.95324638 212 275 C210.06693502 275.09396057 208.13041162 275.11743517 206.19506836 275.11352539 C204.95385727 275.11344986 203.71264618 275.11337433 202.43382263 275.11329651 C201.0691626 275.10818911 199.70450298 275.1029731 198.33984375 275.09765625 C196.95121817 275.095792 195.56259193 275.09436813 194.17396545 275.09336853 C190.51278885 275.08954387 186.8516517 275.07971403 183.19049072 275.06866455 C179.45707737 275.05844932 175.72365766 275.05387067 171.99023438 275.04882812 C164.66013823 275.03809171 157.33007464 275.02101591 150 275 C149.94956543 273.9059082 149.89913086 272.81181641 149.84716797 271.68457031 C149.77092316 270.23240001 149.69423982 268.78025268 149.6171875 267.328125 C149.56921021 266.24942139 149.56921021 266.24942139 149.52026367 265.14892578 C149.09934501 257.55503231 146.75271216 251.9408902 142 246 C142 245.34 142 244.68 142 244 C141.43796875 243.7215625 140.8759375 243.443125 140.296875 243.15625 C138.75716811 242.38115945 137.22583595 241.58921908 135.703125 240.78125 C134.89359375 240.3584375 134.0840625 239.935625 133.25 239.5 C132.45078125 239.0771875 131.6515625 238.654375 130.828125 238.21875 C127.27056078 236.68565603 123.77474215 235.86738756 120 235 C119.87471924 234.21052979 119.74943848 233.42105957 119.62036133 232.60766602 C117.245401 217.81182476 114.83941246 203.22993196 110 189 C115.75 185 115.75 185 118 185 C118 183.02 118 181.04 118 179 C117.04738281 178.5153125 116.09476562 178.030625 115.11328125 177.53125 C107.85728868 173.70667702 102.44746024 170.76065041 99 163 C97.76288414 160.56339918 96.46619345 158.31753159 95 156 C94.36578125 155.85304687 93.7315625 155.70609375 93.078125 155.5546875 C90.2238191 154.7928239 89.50904096 153.44603533 87.8125 151.0625 C74.11310911 132.69022365 53.54374522 113.24426714 31.17578125 106.09765625 C29 105 29 105 27.63671875 102.5234375 C24.95535437 93.62969393 22.37062745 82.41334042 26.05859375 73.41796875 C27.375 71.375 27.375 71.375 28.7109375 69.7734375 C33.65865502 62.96657763 32.76186999 53.02204283 32 45 C30.03509881 35.81085134 24.23815447 29.16257494 16.8125 23.6875 C11.55177546 20.34721296 6.05799108 19.25337747 0 18 C0 12.06 0 6.12 0 0 Z " fill="#AF66DA" transform="translate(287,24)"/>
<path d="M0 0 C3.4063819 0.03979076 6.8088824 0.02062375 10.21533203 -0.00512695 C12.4067532 0.00243105 14.59816584 0.01338339 16.78955078 0.02807617 C18.29619797 0.01760002 18.29619797 0.01760002 19.83328247 0.00691223 C28.22397099 0.17260985 34.66660371 2.67451462 41.09423828 8.10229492 C49.96759329 18.75032094 50.28173828 24.1879247 50.28173828 39.72729492 C70.74173828 39.72729492 91.20173828 39.72729492 112.28173828 39.72729492 C111.15500262 54.37485855 111.15500262 54.37485855 109.89892578 59.41870117 C109.62282471 60.53720459 109.34672363 61.65570801 109.06225586 62.80810547 C108.76343506 63.95706299 108.46461426 65.10602051 108.15673828 66.28979492 C107.68433716 68.12441284 107.68433716 68.12441284 107.20239258 69.99609375 C102.00995897 89.7392513 94.42105623 107.48019723 85.28173828 125.72729492 C84.25290527 125.70521973 83.22407227 125.68314453 82.1640625 125.66040039 C78.32803097 125.59139866 74.49425188 125.58857691 70.65771484 125.60522461 C69.00102146 125.60328393 67.34424695 125.5836539 65.68798828 125.5456543 C56.09758107 124.9840668 56.09758107 124.9840668 47.8894043 128.93237305 C46.35719143 131.49310208 45.28104586 133.92288708 44.28173828 136.72729492 C39.19470842 144.44554712 31.04112463 148.51600386 22.28173828 150.72729492 C18.78937932 151.12825323 15.33693701 151.14836697 11.82421875 151.13134766 C10.81977722 151.13821091 9.81533569 151.14507416 8.78045654 151.15214539 C5.486466 151.17032945 2.19295535 151.16658902 -1.10107422 151.16088867 C-3.40314894 151.16545329 -5.70522231 151.1707597 -8.0072937 151.17677307 C-12.82034866 151.18568678 -17.63323752 151.18329937 -22.44628906 151.17333984 C-28.60770923 151.16183098 -34.76855791 151.18210042 -40.92990303 151.21125698 C-45.67918523 151.22961481 -50.42833023 151.22932767 -55.17763901 151.22361946 C-57.44938842 151.22346631 -59.72114716 151.22950529 -61.9928627 151.24191093 C-65.16878306 151.25681708 -68.34364367 151.24614712 -71.51953125 151.22900391 C-72.45270172 151.23867188 -73.38587219 151.24833984 -74.34732056 151.25830078 C-81.0710679 151.18244539 -85.39401558 149.77576279 -90.46044922 145.12963867 C-94.36202388 140.08449903 -95.35700418 136.05446081 -94.71826172 129.72729492 C-92.82657601 124.16351344 -89.23312179 121.21548818 -84.71826172 117.72729492 C-86.45076172 117.44885742 -86.45076172 117.44885742 -88.21826172 117.16479492 C-94.01510242 115.73105674 -98.76467935 111.85429528 -101.92138672 106.80151367 C-103.63402335 102.34362128 -103.56849707 97.15850844 -101.99560547 92.66088867 C-99.93519924 88.79866971 -97.38370711 86.0769394 -93.71826172 83.72729492 C-92.72826172 83.72729492 -91.73826172 83.72729492 -90.71826172 83.72729492 C-90.71826172 83.06729492 -90.71826172 82.40729492 -90.71826172 81.72729492 C-91.77013672 81.44885742 -91.77013672 81.44885742 -92.84326172 81.16479492 C-97.2495506 78.96165048 -100.51326917 75.13728003 -102.71826172 70.72729492 C-103.48461191 63.85526947 -102.84440324 59.30316184 -98.71826172 53.72729492 C-94.51915441 49.15767814 -89.61352866 48.59727606 -83.71826172 47.72729492 C-84.44013672 47.35604492 -85.16201172 46.98479492 -85.90576172 46.60229492 C-90.09706871 43.80809026 -93.09547605 40.59565193 -94.71826172 35.72729492 C-95.0864966 30.11171303 -94.95717578 26.53342546 -91.71826172 21.72729492 C-84.7616411 14.85119075 -84.7616411 14.85119075 -80.88568115 14.61618042 C-79.77365326 14.62453415 -79.77365326 14.62453415 -78.63916016 14.63305664 C-77.37709747 14.63702957 -77.37709747 14.63702957 -76.08953857 14.64108276 C-75.17811096 14.64632965 -74.26668335 14.65157654 -73.32763672 14.65698242 C-71.40184644 14.64839604 -69.47606383 14.63791933 -67.55029297 14.62573242 C-64.51048511 14.60904905 -61.47238514 14.60226043 -58.43261719 14.62768555 C-55.50072327 14.6486856 -52.57188543 14.62538157 -49.64013672 14.59448242 C-48.28514069 14.62057083 -48.28514069 14.62057083 -46.902771 14.64718628 C-42.0360914 14.58690052 -42.0360914 14.58690052 -37.93856812 12.23048401 C-36.91882274 11.00872733 -35.93658685 9.75458208 -34.99633789 8.47064209 C-27.29578688 -2.03321839 -11.38775388 -0.14895096 0 0 Z " fill="#FEB09E" transform="translate(386.71826171875,259.272705078125)"/>
<path d="M0 0 C0 4.95 0 9.9 0 15 C-2.475 16.2065625 -2.475 16.2065625 -5 17.4375 C-14.70290382 22.75723877 -20.23396382 30.28504279 -23.54624939 40.72106934 C-24.13989404 43.70260803 -24.03692592 46.4661973 -23.95141602 49.50585938 C-23.91867112 50.8415758 -23.88668875 52.17731108 -23.85536194 53.51306152 C-23.83771349 54.21807297 -23.82006504 54.92308441 -23.80188179 55.64945984 C-23.70237525 60.2006587 -23.67855263 64.75299949 -23.64428806 69.3050766 C-23.610073 73.29274131 -23.54727473 77.27583877 -23.4206543 81.26171875 C-22.56633866 109.26458075 -22.56633866 109.26458075 -28.46630859 115.66503906 C-31.73241275 118.3956518 -35.20285039 120.31487861 -39.07748413 122.04644775 C-42.02503595 123.5084095 -44.11564445 125.49536009 -46.5 127.75 C-47.1909375 128.38421875 -47.881875 129.0184375 -48.59375 129.671875 C-49.0578125 130.11015625 -49.521875 130.5484375 -50 131 C-53.46089011 129.59579392 -54.80318257 128.1970704 -56.578125 124.9375 C-57.01640625 124.14085937 -57.4546875 123.34421875 -57.90625 122.5234375 C-58.3496875 121.69070312 -58.793125 120.85796875 -59.25 120 C-59.70890625 119.16726562 -60.1678125 118.33453125 -60.640625 117.4765625 C-64 111.29771205 -64 111.29771205 -64 109 C-66.64 109 -69.28 109 -72 109 C-72.25394531 109.6703125 -72.50789063 110.340625 -72.76953125 111.03125 C-80.64371623 130.0292836 -80.64371623 130.0292836 -89 134 C-90.16015625 134.59296875 -91.3203125 135.1859375 -92.515625 135.796875 C-95.02605938 137.07542574 -97.54886528 138.32212907 -100.0859375 139.546875 C-102.8271757 140.7214272 -102.8271757 140.7214272 -104 142 C-104.04080783 143.99958364 -104.04254356 146.00045254 -104 148 C-103.38479492 148.32685791 -102.76958984 148.65371582 -102.13574219 148.99047852 C-99.32974339 150.49535546 -96.5401558 152.02846283 -93.75 153.5625 C-92.78191406 154.07619141 -91.81382813 154.58988281 -90.81640625 155.11914062 C-85.02314287 158.33540064 -81.34875905 160.67139924 -79 167 C-79.03191334 171.83487054 -81.88750726 176.70826789 -83.75 181.125 C-86.55638327 187.96752293 -88.99691236 194.78187711 -90.875 201.9375 C-91.08648682 202.72519775 -91.29797363 203.51289551 -91.51586914 204.32446289 C-92.70160166 208.99816385 -93.07987431 213.22500836 -93.1875 218.0625 C-93.61788052 221.27005291 -94.07510868 223.20088928 -96.56542969 225.35253906 C-100.96397608 228.29879732 -105.71490958 230.53454889 -110.49560547 232.78515625 C-124.48484325 239.57112303 -137.93882283 246.98217885 -144 262 C-144.38312992 263.55754974 -144.74066477 265.12154834 -145.07666016 266.68994141 C-145.25121735 267.49783112 -145.42577454 268.30572083 -145.60562134 269.13809204 C-145.7357663 269.75252167 -145.86591125 270.36695129 -146 271 C-151.96313166 271.02464574 -157.92623395 271.042834 -163.8894043 271.05493164 C-165.91968298 271.05997278 -167.94995802 271.06680557 -169.98022461 271.07543945 C-172.89177347 271.08751467 -175.8032745 271.09323034 -178.71484375 271.09765625 C-180.08514992 271.10539818 -180.08514992 271.10539818 -181.48313904 271.11329651 C-183.65575427 271.11349168 -185.82827296 271.06211805 -188 271 C-191.51722611 267.48277389 -190.17766529 256.18156288 -190.203125 251.3046875 C-190.21018463 250.40282211 -190.21724426 249.50095673 -190.22451782 248.57176208 C-190.45349869 210.72138763 -190.45349869 210.72138763 -187 194 C-186.80132324 193.01692871 -186.60264648 192.03385742 -186.39794922 191.02099609 C-174.89129151 135.69422767 -144.98766442 82.96940301 -100 48 C-98.52660156 46.81857422 -98.52660156 46.81857422 -97.0234375 45.61328125 C-72.10226931 25.78142651 -32.95780017 0 0 0 Z " fill="#AF66DA" transform="translate(201,28)"/>
<path d="M0 0 C0.72392441 -0.00671722 1.44784882 -0.01343445 2.19371033 -0.02035522 C4.58835707 -0.03936249 6.98272391 -0.04326083 9.37744141 -0.04541016 C11.04269527 -0.05183648 12.70794799 -0.05856472 14.37319946 -0.06558228 C17.86519996 -0.07756206 21.35710149 -0.08126241 24.84912109 -0.08007812 C29.32048499 -0.07987496 33.79121312 -0.107171 38.26242638 -0.14162254 C41.70257472 -0.16387779 45.14256978 -0.16791609 48.58278275 -0.16685867 C50.23099584 -0.16921694 51.87921302 -0.17805325 53.52735519 -0.19352341 C55.83509357 -0.21315533 58.14145748 -0.20735747 60.44921875 -0.1953125 C61.76143402 -0.19816254 63.07364929 -0.20101257 64.42562866 -0.20394897 C68.42030891 0.3722058 70.0625005 1.42266666 72.85400391 4.29052734 C74.04805465 7.87267958 74.00253284 11.1257915 73.97900391 14.85302734 C73.97707031 15.59157959 73.97513672 16.33013184 73.97314453 17.09106445 C73.90950481 25.50653364 73.40388467 33.89502637 72.85400391 42.29052734 C74.13275391 42.35240234 75.41150391 42.41427734 76.72900391 42.47802734 C86.98462843 43.68362584 94.44898589 49.44764814 100.85400391 57.29052734 C106.89392129 66.76752479 107.37603619 78.4232659 105.27587891 89.27880859 C101.54841753 99.90207351 91.35803114 107.93073301 83.56681252 115.65288353 C82.07911795 117.12752353 80.59482572 118.60551984 79.11125183 120.08430481 C75.96585662 123.21842084 72.81649071 126.34852708 69.66650391 129.47802734 C65.9995105 133.12125902 62.33425146 136.76620315 58.67319298 140.41539955 C57.22298556 141.85920872 55.76976349 143.29993313 54.31636047 144.74052429 C50.53243066 148.51043298 46.82335651 152.23883349 43.44262695 156.37768555 C40.85400391 159.29052734 40.85400391 159.29052734 37.10400391 160.29052734 C33.85400391 160.29052734 33.85400391 160.29052734 31.85400391 159.29052734 C31.83982422 160.47388672 31.82564453 161.65724609 31.81103516 162.87646484 C31.37810039 180.29333847 31.37810039 180.29333847 25.85400391 187.29052734 C22.29858176 190.59644618 18.49542171 192.12960403 13.66650391 192.60302734 C7.78451978 192.1208975 3.5954835 190.07783535 -0.52099609 185.85302734 C-3.41978949 181.28185314 -4.41562957 177.36775295 -4.77099609 171.97802734 C-4.84576172 170.90939453 -4.92052734 169.84076172 -4.99755859 168.73974609 C-5.04654297 167.93150391 -5.09552734 167.12326172 -5.14599609 166.29052734 C-5.72607422 167.01369141 -5.72607422 167.01369141 -6.31787109 167.75146484 C-6.83865234 168.38310547 -7.35943359 169.01474609 -7.89599609 169.66552734 C-8.40646484 170.29201172 -8.91693359 170.91849609 -9.44287109 171.56396484 C-12.78181143 174.9488539 -15.77868651 175.59933485 -20.45849609 175.66552734 C-25.93356987 175.54872577 -28.81725428 174.64751079 -33.14599609 171.29052734 C-37.67959386 165.44457233 -38.29948008 160.96788915 -38.32299805 153.77099609 C-38.32956924 152.90065231 -38.33614044 152.03030853 -38.34291077 151.1335907 C-38.36264506 148.24840201 -38.37431006 145.36326553 -38.38427734 142.47802734 C-38.38835287 141.49054504 -38.3924284 140.50306274 -38.39662743 139.48565674 C-38.41749418 134.25346079 -38.4317902 129.02129107 -38.44116211 123.7890625 C-38.45219473 118.40362583 -38.48655652 113.01860596 -38.52633381 107.63331604 C-38.55258285 103.47751133 -38.56086156 99.32180438 -38.56444359 95.16592407 C-38.56929245 93.18215131 -38.58085749 91.19838242 -38.59948158 89.21469116 C-38.723864 75.08171877 -38.17387269 63.23002908 -28.14599609 52.29052734 C-23.83292112 47.91782461 -19.84466805 45.68369748 -14.14599609 43.29052734 C-14.13141357 42.22616455 -14.11683105 41.16180176 -14.10180664 40.06518555 C-14.0436983 36.10456266 -13.96646664 32.14450086 -13.88354492 28.18432617 C-13.8503544 26.47250496 -13.8223042 24.76057586 -13.79956055 23.04858398 C-13.76590577 20.58319255 -13.71358636 18.11878453 -13.65771484 15.65380859 C-13.65132492 14.89215897 -13.644935 14.13050934 -13.63835144 13.34577942 C-13.51448603 8.83794192 -12.9576872 5.86101431 -10.14599609 2.29052734 C-6.41481524 -0.19692656 -4.46016791 0.02594376 0 0 Z " fill="#FECDBF" transform="translate(214.14599609375,-0.29052734375)"/>
<path d="M0 0 C5.64753097 0.53962011 10.1157985 2.0705847 15.25 4.4375 C16.02722412 4.79166992 16.80444824 5.14583984 17.60522461 5.51074219 C69.07315952 29.28341278 109.18660667 69.89525179 129.10546875 123.5 C132.97689123 134.45236617 135.94197939 145.5713161 138 157 C138.22429687 158.21381348 138.22429687 158.21381348 138.453125 159.45214844 C142.38284379 181.48059367 142.07662091 203.88678721 139 226 C131.74 226 124.48 226 117 226 C116.9175 223.545625 116.835 221.09125 116.75 218.5625 C116.31814759 210.05363103 114.3881187 203.73514837 109 197 C109 196.34 109 195.68 109 195 C108.43796875 194.7215625 107.8759375 194.443125 107.296875 194.15625 C105.75716811 193.38115945 104.22583595 192.58921908 102.703125 191.78125 C101.89359375 191.3584375 101.0840625 190.935625 100.25 190.5 C99.45078125 190.0771875 98.6515625 189.654375 97.828125 189.21875 C94.27056078 187.68565603 90.77474215 186.86738756 87 186 C86.87471924 185.21052979 86.74943848 184.42105957 86.62036133 183.60766602 C84.245401 168.81182476 81.83941246 154.22993196 77 140 C82.75 136 82.75 136 85 136 C85 134.02 85 132.04 85 130 C84.04738281 129.5153125 83.09476562 129.030625 82.11328125 128.53125 C74.85728868 124.70667702 69.44746024 121.76065041 66 114 C64.76288414 111.56339918 63.46619345 109.31753159 62 107 C61.36578125 106.85304688 60.7315625 106.70609375 60.078125 106.5546875 C57.2238191 105.7928239 56.50904096 104.44603533 54.8125 102.0625 C41.11310911 83.69022365 20.54374522 64.24426714 -1.82421875 57.09765625 C-4 56 -4 56 -5.36328125 53.5234375 C-8.04464563 44.62969393 -10.62937255 33.41334042 -6.94140625 24.41796875 C-5.625 22.375 -5.625 22.375 -4.2890625 20.7734375 C-1.10973467 16.39945316 -0.69666547 11.37886931 -0.375 6.125 C-0.30023438 4.97257812 -0.22546875 3.82015625 -0.1484375 2.6328125 C-0.09945313 1.76398438 -0.05046875 0.89515625 0 0 Z " fill="#BD80E0" transform="translate(320,73)"/>
<path d="M0 0 C0.72392441 -0.00671722 1.44784882 -0.01343445 2.19371033 -0.02035522 C4.58835707 -0.03936249 6.98272391 -0.04326083 9.37744141 -0.04541016 C11.04269527 -0.05183648 12.70794799 -0.05856472 14.37319946 -0.06558228 C17.86519996 -0.07756206 21.35710149 -0.08126241 24.84912109 -0.08007812 C29.32048499 -0.07987496 33.79121312 -0.107171 38.26242638 -0.14162254 C41.70257472 -0.16387779 45.14256978 -0.16791609 48.58278275 -0.16685867 C50.23099584 -0.16921694 51.87921302 -0.17805325 53.52735519 -0.19352341 C55.83509357 -0.21315533 58.14145748 -0.20735747 60.44921875 -0.1953125 C61.76143402 -0.19816254 63.07364929 -0.20101257 64.42562866 -0.20394897 C68.42030891 0.3722058 70.0625005 1.42266666 72.85400391 4.29052734 C74.04805465 7.87267958 74.00253284 11.1257915 73.97900391 14.85302734 C73.97707031 15.59157959 73.97513672 16.33013184 73.97314453 17.09106445 C73.90950481 25.50653364 73.40388467 33.89502637 72.85400391 42.29052734 C72.03158203 42.37689453 71.20916016 42.46326172 70.36181641 42.55224609 C59.5438573 43.91385988 49.45607842 47.15188382 42.48681641 56.03271484 C36.90975744 64.24980172 34.65653759 73.42824854 35.85400391 83.29052734 C37.61035801 91.11969904 40.54740826 97.27638561 45.85400391 103.29052734 C44.4790323 106.39006124 42.90880849 108.46409007 40.48291016 110.82177734 C39.82613281 111.46759766 39.16935547 112.11341797 38.49267578 112.77880859 C37.80753906 113.44267578 37.12240234 114.10654297 36.41650391 114.79052734 C35.06133321 116.11108157 33.70839126 117.43392762 32.35791016 118.75927734 C31.75793213 119.34128906 31.1579541 119.92330078 30.53979492 120.52294922 C28.80346679 122.3435163 27.32278553 124.25041291 25.85400391 126.29052734 C25.09087891 125.65115234 24.32775391 125.01177734 23.54150391 124.35302734 C18.71102455 120.64591528 13.73637144 120.628761 7.85400391 121.29052734 C3.41761397 123.55057505 0.25847398 126.68579433 -3.14599609 130.29052734 C-3.44892578 129.68724609 -3.75185547 129.08396484 -4.06396484 128.46240234 C-7.10196005 122.66684226 -9.65970018 118.45262598 -16.14599609 116.29052734 C-21.20235561 115.75965311 -25.02763396 115.70084549 -29.58349609 118.10302734 C-30.85193359 119.18583984 -30.85193359 119.18583984 -32.14599609 120.29052734 C-32.72349609 120.76490234 -33.30099609 121.23927734 -33.89599609 121.72802734 C-35.51530424 123.75216252 -36.29144989 125.85835739 -37.14599609 128.29052734 C-37.47599609 128.29052734 -37.80599609 128.29052734 -38.14599609 128.29052734 C-38.23926448 121.04874473 -38.31004577 113.80709462 -38.35324478 106.56482983 C-38.37399331 103.20079809 -38.40207201 99.83718154 -38.44775391 96.47338867 C-38.49662313 92.59331578 -38.51904615 88.71382208 -38.53662109 84.83349609 C-38.55726624 83.64346481 -38.57791138 82.45343353 -38.59918213 81.2273407 C-38.6024403 68.92952197 -35.11019428 59.35100476 -26.45068359 50.57177734 C-22.63984253 47.08562678 -18.93543016 45.30186097 -14.14599609 43.29052734 C-14.13141357 42.22616455 -14.11683105 41.16180176 -14.10180664 40.06518555 C-14.0436983 36.10456266 -13.96646664 32.14450086 -13.88354492 28.18432617 C-13.8503544 26.47250496 -13.8223042 24.76057586 -13.79956055 23.04858398 C-13.76590577 20.58319255 -13.71358636 18.11878453 -13.65771484 15.65380859 C-13.65132492 14.89215897 -13.644935 14.13050934 -13.63835144 13.34577942 C-13.51448603 8.83794192 -12.9576872 5.86101431 -10.14599609 2.29052734 C-6.41481524 -0.19692656 -4.46016791 0.02594376 0 0 Z " fill="#FEB09E" transform="translate(214.14599609375,-0.29052734375)"/>
<path d="M0 0 C0.37307195 7.74462676 0.6561238 15.48710183 0.82899475 23.23849106 C0.91204445 26.83982271 1.02427743 30.43495485 1.20703125 34.03271484 C2.35541089 57.23588015 2.35541089 57.23588015 -1.53344727 63.45056152 C-5.17136436 67.29327746 -9.32400099 69.7396844 -14.07043457 71.99407959 C-16.98336485 73.51264744 -19.11259844 75.50367217 -21.5 77.75 C-22.1909375 78.38421875 -22.881875 79.0184375 -23.59375 79.671875 C-24.0578125 80.11015625 -24.521875 80.5484375 -25 81 C-28.46089011 79.59579392 -29.80318257 78.1970704 -31.578125 74.9375 C-32.01640625 74.14085937 -32.4546875 73.34421875 -32.90625 72.5234375 C-33.3496875 71.69070312 -33.793125 70.85796875 -34.25 70 C-34.93835938 68.75089844 -34.93835938 68.75089844 -35.640625 67.4765625 C-39 61.29771205 -39 61.29771205 -39 59 C-41.64 59 -44.28 59 -47 59 C-47.25394531 59.6703125 -47.50789063 60.340625 -47.76953125 61.03125 C-55.64371623 80.0292836 -55.64371623 80.0292836 -64 84 C-65.74023438 84.88945312 -65.74023438 84.88945312 -67.515625 85.796875 C-70.02605938 87.07542574 -72.54886528 88.32212907 -75.0859375 89.546875 C-77.8271757 90.7214272 -77.8271757 90.7214272 -79 92 C-79.04080783 93.99958364 -79.04254356 96.00045254 -79 98 C-78.38479492 98.32685791 -77.76958984 98.65371582 -77.13574219 98.99047852 C-74.32974339 100.49535546 -71.5401558 102.02846283 -68.75 103.5625 C-67.78191406 104.07619141 -66.81382813 104.58988281 -65.81640625 105.11914062 C-60.02314287 108.33540064 -56.34875905 110.67139924 -54 117 C-54.03191334 121.83487054 -56.88750726 126.70826789 -58.75 131.125 C-61.55638327 137.96752293 -63.99691236 144.78187711 -65.875 151.9375 C-66.08648682 152.72519775 -66.29797363 153.51289551 -66.51586914 154.32446289 C-67.70160166 158.99816385 -68.07987431 163.22500836 -68.1875 168.0625 C-68.61788052 171.27005291 -69.07510868 173.20088928 -71.56542969 175.35253906 C-75.96397608 178.29879732 -80.71490958 180.53454889 -85.49560547 182.78515625 C-99.65866025 189.65543901 -112.63487819 196.98752521 -119 212 C-119.90653682 215.02033661 -120.48833713 217.8788565 -121 221 C-121.66 221 -122.32 221 -123 221 C-126.09473295 199.86186871 -126.26167448 178.13274327 -123 157 C-122.88172852 156.22205078 -122.76345703 155.44410156 -122.64160156 154.64257812 C-116.14339434 113.86756792 -96.3828053 76.65202991 -68 47 C-67.47954102 46.44699219 -66.95908203 45.89398438 -66.42285156 45.32421875 C-52.93884122 31.04229028 -21.15513873 0 0 0 Z " fill="#BD80E0" transform="translate(176,78)"/>
<path d="M0 0 C4.21966608 2.89348531 5.84311028 7.17269038 7 12 C8.16085649 20.55956833 5.81374892 27.63383788 1.1875 34.8125 C-0.69477035 36.69477035 -2.47200374 38.11563561 -4.63671875 39.63671875 C-5.58164185 40.30320435 -5.58164185 40.30320435 -6.5456543 40.9831543 C-7.02558838 41.31871338 -7.50552246 41.65427246 -8 42 C-6.81506958 42.00142502 -5.63013916 42.00285004 -4.40930176 42.00431824 C6.77266387 42.02100774 17.95426649 42.06384136 29.13603973 42.13209057 C34.88436574 42.16634079 40.63242651 42.19146756 46.38085938 42.19555664 C51.93133768 42.1998437 57.48121786 42.22834111 63.0315094 42.27343178 C65.14608778 42.2863936 67.26073778 42.29071915 69.37535095 42.28615379 C72.34398506 42.28123861 75.31087725 42.30738186 78.27929688 42.34057617 C79.14820557 42.33195053 80.01711426 42.32332489 80.91235352 42.31443787 C87.04566282 42.42895648 91.27626413 44.03224388 96 48 C99.71752643 52.40956772 100.4276833 56.28237654 100.23828125 61.984375 C100 64 100 64 99 67 C97.68 66.34 96.36 65.68 95 65 C95 64.34 95 63.68 95 63 C90.71872 61.26434595 87.1465371 59.8792011 82.50117493 59.84178162 C81.57990814 59.8319928 80.65864136 59.82220398 79.7094574 59.81211853 C78.70101273 59.80636307 77.69256805 59.8006076 76.65356445 59.79467773 C75.58998718 59.78477814 74.52640991 59.77487854 73.43060303 59.76467896 C69.90818523 59.73304175 66.38575394 59.70829765 62.86328125 59.68359375 C60.4237584 59.66302615 57.98423912 59.64202973 55.54472351 59.62062073 C49.11842749 59.56538008 42.6920992 59.51597954 36.26574707 59.46777344 C29.71033857 59.417573 23.15497702 59.36187932 16.59960938 59.30664062 C3.73311329 59.19903466 -9.13342288 59.0974086 -22 59 C-21.67547852 59.94383545 -21.35095703 60.8876709 -21.01660156 61.86010742 C-18.52146883 69.56661609 -19.74341857 78.30659902 -23.22265625 85.54296875 C-28.87086423 95.49887668 -35.84886898 102.05654342 -46.89453125 105.609375 C-56.98251776 107.4809866 -66.16372914 106.17428025 -75 101 C-80.78731559 96.85256844 -85.01857085 92.48136771 -88 86 C-88 85.34 -88 84.68 -88 84 C-102.19 84 -116.38 84 -131 84 C-133 75 -133 75 -133 68 C-119.14 68 -105.28 68 -91 68 C-90.67 65.03 -90.34 62.06 -90 59 C-88.90625 55.99609375 -88.90625 55.99609375 -87.5 53.4375 C-87.0565625 52.59058594 -86.613125 51.74367188 -86.15625 50.87109375 C-79.97648215 42.64259852 -71.6158265 37.67604558 -62.75 32.75 C-61.01702933 31.76882107 -59.28406109 30.78763773 -57.55137634 29.80595398 C-55.81195116 28.82272019 -54.06931286 27.84517781 -52.32666016 26.86767578 C-47.51556258 24.16659722 -42.7265112 21.4274793 -37.9375 18.6875 C-37.0928418 18.20579346 -36.24818359 17.72408691 -35.37792969 17.2277832 C-28.3736549 13.22972569 -21.41236207 9.16096378 -14.46875 5.05859375 C-13.87054443 4.70595459 -13.27233887 4.35331543 -12.65600586 3.98999023 C-11.1648984 3.09857924 -9.69245799 2.1761198 -8.22265625 1.25 C-5.24520012 -0.42449202 -3.36231898 -0.50077091 0 0 Z " fill="#FECDBF" transform="translate(146,231)"/>
<path d="M0 0 C1.29111191 0.0001133 1.29111191 0.0001133 2.60830688 0.00022888 C4.00368179 0.00797081 4.00368179 0.00797081 5.42724609 0.01586914 C6.37884613 0.01728409 7.33044617 0.01869904 8.31088257 0.02015686 C11.35751456 0.02576527 14.40407372 0.0383192 17.45068359 0.05102539 C19.51318253 0.05603931 21.57568262 0.0606024 23.63818359 0.06469727 C28.70071176 0.07573744 33.76318532 0.09300772 38.82568359 0.11352539 C38.33890137 1.26675293 37.85211914 2.41998047 37.35058594 3.6081543 C35.0252479 10.63305092 35.39348217 17.88874158 35.42724609 25.19946289 C35.425222 26.74883155 35.42230777 28.29819928 35.41854858 29.8475647 C35.41414892 33.0767738 35.42048492 36.30573233 35.43457031 39.53491211 C35.45174755 43.67442191 35.44175285 47.81335174 35.42385292 51.95284081 C35.41302442 55.14413853 35.41645557 58.33529805 35.4242363 61.52659988 C35.42623645 63.05363662 35.42378551 64.58068592 35.41679764 66.10770798 C35.40918873 68.23547576 35.42077398 70.36229339 35.4375 72.48999023 C35.44108017 74.30459244 35.44108017 74.30459244 35.44473267 76.15585327 C35.5811049 79.09906208 35.5811049 79.09906208 37.20858765 80.99551392 C39.3293818 82.46176717 40.95591501 82.61571607 43.51318359 82.80102539 C44.32142578 82.86676758 45.12966797 82.93250977 45.96240234 83.00024414 C46.57728516 83.03762695 47.19216797 83.07500977 47.82568359 83.11352539 C47.79735574 89.35981624 46.74799326 93.07718352 42.49365234 97.70336914 C40.70872618 99.21240507 38.95182366 100.15883777 36.82568359 101.11352539 C37.80408203 101.24307617 37.80408203 101.24307617 38.80224609 101.37524414 C44.98164692 102.36868764 48.52677885 103.50006665 52.82568359 108.11352539 C56.32257071 113.12573026 56.77650302 118.18918896 55.82568359 124.11352539 C53.69262343 129.88068806 50.61850419 132.61181062 45.19607544 135.25039673 C40.93801646 136.80087994 36.71500737 136.68330443 32.22802734 136.64477539 C31.23493057 136.64860229 30.2418338 136.6524292 29.21864319 136.65637207 C27.13020812 136.65908079 25.04173853 136.65179289 22.95336914 136.63500977 C19.76875831 136.61356293 16.58639741 136.63485922 13.40185547 136.66040039 C11.36474115 136.65775737 9.32762822 136.65263294 7.29052734 136.64477539 C6.34555893 136.65287231 5.40059052 136.66096924 4.42698669 136.66931152 C-2.39754164 136.57312594 -6.7726547 135.23298646 -11.91650391 130.51586914 C-15.81807857 125.47072949 -16.81305887 121.44069128 -16.17431641 115.11352539 C-14.2826307 109.5497439 -10.68917648 106.60171865 -6.17431641 103.11352539 C-7.90681641 102.83508789 -7.90681641 102.83508789 -9.67431641 102.55102539 C-15.47115711 101.11728721 -20.22073403 97.24052575 -23.37744141 92.18774414 C-25.09007803 87.72985174 -25.02455176 82.54473891 -23.45166016 78.04711914 C-21.39125393 74.18490018 -18.8397618 71.46316987 -15.17431641 69.11352539 C-14.18431641 69.11352539 -13.19431641 69.11352539 -12.17431641 69.11352539 C-12.17431641 68.45352539 -12.17431641 67.79352539 -12.17431641 67.11352539 C-13.22619141 66.83508789 -13.22619141 66.83508789 -14.29931641 66.55102539 C-18.70560528 64.34788095 -21.96932385 60.5235105 -24.17431641 56.11352539 C-24.94066659 49.24149994 -24.30045793 44.68939231 -20.17431641 39.11352539 C-15.97520909 34.54390861 -11.06958335 33.98350653 -5.17431641 33.11352539 C-5.89619141 32.74227539 -6.61806641 32.37102539 -7.36181641 31.98852539 C-11.5531234 29.19432073 -14.55153074 25.98188239 -16.17431641 21.11352539 C-16.54255128 15.4979435 -16.41323047 11.91965593 -13.17431641 7.11352539 C-9.09014678 3.07662624 -5.89971016 -0.01725061 0 0 Z " fill="#FECDBF" transform="translate(308.17431640625,273.886474609375)"/>
<path d="M0 0 C0.00386719 1.22396484 0.00386719 1.22396484 0.0078125 2.47265625 C0.37921731 13.85002345 3.15408157 24.24410272 6.21240234 35.16796875 C7.37543976 39.35000038 8.46784887 43.54966599 9.5625 47.75 C9.9709118 49.29959582 10.37976327 50.84907584 10.7890625 52.3984375 C11.60304339 55.48527326 12.40968827 58.5738984 13.2109375 61.6640625 C13.61973749 63.2343891 14.02859182 64.80470156 14.4375 66.375 C14.63762695 67.14956543 14.83775391 67.92413086 15.04394531 68.72216797 C16.15742307 72.98056281 17.35087326 77.20004176 18.6484375 81.40625 C25.67908174 104.34416077 25.67908174 104.34416077 21.3125 113.5625 C16.62506583 118.50330899 13.08210802 121.11127488 6.1875 121.3125 C1.3338519 121.25598008 -1.28169946 120.27564572 -5 117 C-9.26077137 112.60423389 -10.49132142 108.00524731 -12.0625 102.25 C-12.48607788 100.75146484 -12.48607788 100.75146484 -12.91821289 99.22265625 C-13.96465247 95.48689705 -14.98543889 91.74450548 -16 88 C-16.22248413 87.17991455 -16.44496826 86.3598291 -16.67419434 85.51489258 C-20.15196687 72.68614331 -23.58726739 59.84618935 -27 47 C-29.31 46.67 -31.62 46.34 -34 46 C-33.99333817 47.13925934 -33.98667633 48.27851868 -33.97981262 49.45230103 C-33.91897516 60.19318738 -33.87401463 70.93403874 -33.84456348 81.67505836 C-33.82891331 87.19701956 -33.80768664 92.71884156 -33.77368164 98.24072266 C-33.74106542 103.57049298 -33.7231421 108.90012948 -33.71536827 114.22999191 C-33.70982886 116.26254762 -33.69901173 118.29509608 -33.68280983 120.32759476 C-33.66100569 123.17640208 -33.65803435 126.0246577 -33.65942383 128.87353516 C-33.648638 129.71223145 -33.63785217 130.55092773 -33.6267395 131.41503906 C-33.65639186 137.04029821 -34.56452968 141.32986196 -38.5 145.64453125 C-44.20632877 150.08774037 -48.91980428 150.79527939 -56 150 C-62.13398476 146.93300762 -65.83411707 142.45769727 -68 136 C-68.24723816 133.24874878 -68.24723816 133.24874878 -68.24291992 130.22607422 C-68.24599655 129.0865329 -68.24907318 127.94699158 -68.25224304 126.7729187 C-68.24505753 125.5459024 -68.23787201 124.31888611 -68.23046875 123.0546875 C-68.23001053 121.77506134 -68.22955231 120.49543518 -68.2290802 119.17703247 C-68.22751704 116.46187927 -68.2192547 113.74685818 -68.20581055 111.03173828 C-68.18905639 107.61067956 -68.18507255 104.18976765 -68.18563652 100.76867294 C-68.18498615 86.15164383 -68.00770839 71.5856802 -67 57 C-65.01635742 57.32348633 -63.03271484 57.64697266 -61.04907227 57.97045898 C-58.68471031 58.1913122 -58.68471031 58.1913122 -55.9375 56.0625 C-53.80547217 53.98704728 -51.90132001 51.73570931 -49.97216797 49.47265625 C-45.382445 44.21140912 -40.44843013 39.30374093 -35.5078125 34.375 C-34.51115595 33.37766839 -33.51464777 32.38018849 -32.51828003 31.38256836 C-30.4473978 29.31022348 -28.37474669 27.23966926 -26.30078125 25.17041016 C-23.63746248 22.51284037 -20.97872914 19.85073502 -18.32126045 17.18731689 C-16.27282567 15.13528202 -14.22203204 13.08561799 -12.17049789 11.03668213 C-11.1881145 10.05496685 -10.20647625 9.07250535 -9.22558975 8.08929443 C-7.86390516 6.72508684 -6.49869551 5.36440047 -5.13330078 4.00390625 C-3.9691716 2.84097046 -3.9691716 2.84097046 -2.78152466 1.65454102 C-1 0 -1 0 0 0 Z " fill="#FEB09E" transform="translate(312,101)"/>
<path d="M0 0 C2.19958986 0.00747531 4.39918645 0.01316213 6.5987854 0.01715088 C12.34288443 0.03230566 18.08656848 0.07149838 23.83050537 0.1159668 C29.70986317 0.15714034 35.58928908 0.17520875 41.46875 0.1953125 C52.97153488 0.23800373 64.47401396 0.30612985 75.9765625 0.390625 C75.02914314 1.50657903 74.08019615 2.62123625 73.13061523 3.73535156 C72.60233627 4.35621643 72.07405731 4.9770813 71.5297699 5.61676025 C49.00040939 31.34676799 13.97587219 46.94112239 -18.0234375 56.390625 C-19.19648438 56.73738281 -20.36953125 57.08414063 -21.578125 57.44140625 C-33.43958987 60.50902648 -46.76384375 62.390625 -59.0234375 62.390625 C-56.59614057 54.6674075 -50.56055315 51.23558564 -43.8359375 47.578125 C-42.75022461 46.96807617 -42.75022461 46.96807617 -41.64257812 46.34570312 C-36.30357143 43.390625 -36.30357143 43.390625 -34.0234375 43.390625 C-34.0234375 40.750625 -34.0234375 38.110625 -34.0234375 35.390625 C-34.69503906 35.13410156 -35.36664063 34.87757813 -36.05859375 34.61328125 C-46.15980147 30.44769757 -55.12573886 26.66060548 -60.0234375 16.390625 C-60.6421875 15.25625 -61.2609375 14.121875 -61.8984375 12.953125 C-63.0234375 10.390625 -63.0234375 10.390625 -63.0234375 8.390625 C-62.30913574 8.29040039 -61.59483398 8.19017578 -60.85888672 8.08691406 C-57.53721537 7.61491243 -54.21791301 7.12782075 -50.8984375 6.640625 C-49.77566406 6.48335938 -48.65289062 6.32609375 -47.49609375 6.1640625 C-41.77227947 5.31366724 -36.48686314 4.24675968 -31.02148438 2.3359375 C-20.82460504 -0.61487392 -10.53118045 -0.10599125 0 0 Z " fill="#BD80E0" transform="translate(326.0234375,409.609375)"/>
<path d="M0 0 C12.6661434 -0.09304265 25.3322043 -0.16393817 37.99862099 -0.20724869 C43.8813657 -0.22804484 49.76387506 -0.25621582 55.64648438 -0.30175781 C61.3329128 -0.34550108 67.01911611 -0.36919693 72.70569992 -0.37950897 C74.86563023 -0.3868495 77.02554945 -0.40118255 79.18538284 -0.42292023 C89.96148287 -0.52697606 99.78508122 -0.57650626 110.0579834 3.01513672 C115.50350769 4.83806896 121.20434185 5.45571723 126.875 6.25 C128.64037109 6.50910156 128.64037109 6.50910156 130.44140625 6.7734375 C133.29315858 7.19076711 136.14584036 7.59952915 139 8 C135.42705882 19.2060428 130.95416975 24.78797366 120.53515625 30.2109375 C119.36855469 30.80132812 118.20195312 31.39171875 117 32 C114.65124093 33.30824218 112.32598097 34.65134692 110 36 C110 37.98 110 39.96 110 42 C110.62044189 42.33733154 111.24088379 42.67466309 111.88012695 43.0222168 C114.69835072 44.56415426 117.50533702 46.12552347 120.3125 47.6875 C121.28896484 48.21794922 122.26542969 48.74839844 123.27148438 49.29492188 C124.20927734 49.82021484 125.14707031 50.34550781 126.11328125 50.88671875 C126.97735596 51.36326904 127.84143066 51.83981934 128.73168945 52.33081055 C131.36476931 54.26842404 132.5658748 56.08221615 134 59 C134 59.66 134 60.32 134 61 C125.15312857 61.25991013 116.87650589 60.66521014 108.1875 59 C107.0217041 58.77707275 105.8559082 58.55414551 104.65478516 58.32446289 C68.06061618 50.94464708 22.88534771 31.38810591 0 0 Z " fill="#BD80E0" transform="translate(110,410)"/>
<path d="M0 0 C2.07453217 -0.01187941 4.14606558 -0.06113324 6.2199707 -0.11157227 C16.02713049 -0.23031066 23.0274998 1.41517626 30.58911133 7.80053711 C38.46686307 17.2538392 40.13830379 24.38198408 40.15161133 36.73803711 C40.17610352 37.92333008 40.2005957 39.10862305 40.22583008 40.32983398 C40.26018355 50.65305171 37.94900486 58.06389142 30.80786133 65.62866211 C24.14731953 71.52067986 17.61845678 73.18159544 8.81567383 72.76928711 C0.22902989 71.79804718 -5.50880766 67.91294718 -11.22338867 61.42553711 C-15.32754439 54.83549135 -17.37038736 49.21646736 -17.22338867 41.42553711 C-19.53338867 41.42553711 -21.84338867 41.42553711 -24.22338867 41.42553711 C-24.199823 43.08939453 -24.199823 43.08939453 -24.17578125 44.78686523 C-24.1211744 48.93164713 -24.08692749 53.07639769 -24.05859375 57.22143555 C-24.04357684 59.00990154 -24.02315709 60.79833114 -23.99707031 62.58666992 C-23.96037252 65.16846742 -23.94359122 67.7497749 -23.93041992 70.33178711 C-23.91493607 71.12170044 -23.89945221 71.91161377 -23.88349915 72.72546387 C-23.88139405 79.78774573 -25.435647 86.11861266 -30.41088867 91.42553711 C-30.94069336 92.00303711 -31.47049805 92.58053711 -32.01635742 93.17553711 C-32.41467773 93.58803711 -32.81299805 94.00053711 -33.22338867 94.42553711 C-34.54338867 94.09553711 -35.86338867 93.76553711 -37.22338867 93.42553711 C-37.29308251 84.43687556 -37.34629794 75.44830789 -37.37882519 66.45943451 C-37.39444135 62.28495193 -37.415605 58.11065504 -37.44970703 53.9362793 C-37.4824458 49.90326629 -37.50027211 45.87043123 -37.5080204 41.83729553 C-37.51353798 40.30319928 -37.52431222 38.7691121 -37.54057884 37.23509216 C-37.65212898 26.27350352 -37.12825602 16.78043403 -29.22338867 8.42553711 C-20.21075722 1.0561862 -11.32409384 0.03061645 0 0 Z " fill="#FECDBE" transform="translate(397.223388671875,259.574462890625)"/>
<path d="M0 0 C8.59674098 5.47731026 15.02279969 11.78561942 18.3125 21.56640625 C20.09433591 31.2416087 19.93148401 42.32324858 14.73046875 50.8359375 C8.55578943 58.39868304 1.48570237 65.21547417 -5.4296875 72.09375 C-6.47079672 73.13298813 -7.51168093 74.17245171 -8.55235291 75.21212769 C-11.25765211 77.91365601 -13.96594294 80.61216471 -16.67492676 83.30999756 C-19.45246053 86.0771987 -22.22707336 88.84732544 -25.00195312 91.6171875 C-30.42166805 97.0262612 -35.8445554 102.43213964 -41.26953125 107.8359375 C-45.02427427 104.35026192 -46.030361 100.81979182 -46.640625 95.7578125 C-46.66253906 94.71109375 -46.68445313 93.664375 -46.70703125 92.5859375 C-46.74699219 91.54953125 -46.78695312 90.513125 -46.828125 89.4453125 C-45.3594107 79.95515855 -39.74075947 73.60061537 -32.95703125 67.2109375 C-32.21646484 66.49292969 -31.47589844 65.77492188 -30.71289062 65.03515625 C-28.90947437 63.28991471 -27.09544336 61.55757594 -25.26953125 59.8359375 C-26.46149503 56.64455061 -27.76343243 53.93971181 -29.70703125 51.1484375 C-35.06600097 42.72946436 -36.33354597 34.13281736 -34.58203125 24.3984375 C-31.8369564 13.20549144 -24.53254532 6.13782412 -15.26953125 -0.1640625 C-10.17751529 -3.09197168 -5.10732138 -2.61958997 0 0 Z " fill="#FEDECE" transform="translate(301.26953125,45.1640625)"/>
<path d="M0 0 C4.38476639 1.595926 4.98687665 3.86559444 6.91503906 7.95507812 C7.33495117 8.86837891 7.75486328 9.78167969 8.1875 10.72265625 C13.24553242 20.83872109 17.8906721 24.75407175 28.1875 29.16015625 C34.95176847 32.51844265 34.95176847 32.51844265 36.3125 36.22265625 C36.1875 39.16015625 36.1875 39.16015625 34.92651367 40.71948242 C33.0933887 42.2381221 31.40037567 43.16050757 29.23828125 44.1484375 C17.69239307 49.74566738 12.40806052 54.4071327 7.1875 66.16015625 C5.97910635 68.64764081 4.70677966 70.82593731 3.1875 73.16015625 C-0.5625 74.09765625 -0.5625 74.09765625 -3.8125 74.16015625 C-4.4725 73.12890625 -5.1325 72.09765625 -5.8125 71.03515625 C-6.28558594 70.30683594 -6.75867188 69.57851562 -7.24609375 68.828125 C-8.8125 66.16015625 -8.8125 66.16015625 -10.22265625 62.8984375 C-15.53951973 51.47283726 -23.81825289 47.29885872 -34.98999023 42.0612793 C-36.8125 41.16015625 -36.8125 41.16015625 -37.8125 40.16015625 C-38.375 37.41015625 -38.375 37.41015625 -37.8125 34.16015625 C-34.20657583 31.41965388 -30.71648628 29.54448575 -26.55078125 27.7734375 C-15.14517793 22.39059501 -11.01502472 14.20879526 -5.82714844 2.98266602 C-4.28315766 0.20935245 -3.12990765 0.17823085 0 0 Z " fill="#FEDF78" transform="translate(133.8125,135.83984375)"/>
<path d="M0 0 C4.38476639 1.595926 4.98687665 3.86559444 6.91503906 7.95507812 C7.33495117 8.86837891 7.75486328 9.78167969 8.1875 10.72265625 C13.24553242 20.83872109 17.8906721 24.75407175 28.1875 29.16015625 C34.95176847 32.51844265 34.95176847 32.51844265 36.3125 36.22265625 C36.1875 39.16015625 36.1875 39.16015625 34.93530273 40.7019043 C33.07015019 42.25806524 31.25875195 43.32313031 29.09765625 44.4296875 C28.31326172 44.84412109 27.52886719 45.25855469 26.72070312 45.68554688 C25.08142418 46.53952697 23.43819698 47.38597296 21.79101562 48.22460938 C13.49306863 52.64246631 10.56682774 59.09598938 6.74414062 67.30078125 C5.16139298 70.58666451 4.29579576 72.08795908 1.1875 74.16015625 C-1.1875 74.78515625 -1.1875 74.78515625 -3.8125 74.16015625 C-6.48945064 70.54265538 -8.43792791 67.03871718 -10.203125 62.8984375 C-15.57497329 51.4895354 -23.79748473 47.30859534 -34.98999023 42.0612793 C-36.8125 41.16015625 -36.8125 41.16015625 -37.8125 40.16015625 C-38.375 37.41015625 -38.375 37.41015625 -37.8125 34.16015625 C-34.20657583 31.41965388 -30.71648628 29.54448575 -26.55078125 27.7734375 C-15.14517793 22.39059501 -11.01502472 14.20879526 -5.82714844 2.98266602 C-4.28315766 0.20935245 -3.12990765 0.17823085 0 0 Z " fill="#FEDF77" transform="translate(256.8125,411.83984375)"/>
<path d="M0 0 C1.20366211 0.00966797 1.20366211 0.00966797 2.43164062 0.01953125 C3.26501953 0.03628906 4.09839844 0.05304687 4.95703125 0.0703125 C6.22450195 0.08384766 6.22450195 0.08384766 7.51757812 0.09765625 C9.60168368 0.12120547 11.68564342 0.15707603 13.76953125 0.1953125 C12.96515625 0.9584375 12.16078125 1.7215625 11.33203125 2.5078125 C7.09841063 6.9479512 7.60891344 11.24727851 7.55859375 17.0625 C7.53052641 18.85287375 7.50186195 20.64323821 7.47265625 22.43359375 C7.43139775 25.25341545 7.39450555 28.07306364 7.36816406 30.89306641 C7.34052392 33.61657372 7.29465569 36.33929605 7.24609375 39.0625 C7.24284088 39.90223358 7.23958801 40.74196716 7.23623657 41.60714722 C7.1383836 46.277976 6.79417945 49.40394164 3.76953125 53.1953125 C1.28125 54.93359375 1.28125 54.93359375 -1.54296875 56.5078125 C-9.93952303 61.64765575 -14.75968545 68.65520555 -17.23046875 78.1953125 C-17.99864219 84.53305084 -17.92823594 90.9454806 -17.98046875 97.3203125 C-18.00867325 99.05732085 -18.03860683 100.79430203 -18.0703125 102.53125 C-18.14364422 106.75255485 -18.19354176 110.97353866 -18.23046875 115.1953125 C-19.15388062 115.47882568 -19.15388062 115.47882568 -20.09594727 115.76806641 C-21.30915649 116.15357666 -21.30915649 116.15357666 -22.546875 116.546875 C-23.74872437 116.92320068 -23.74872437 116.92320068 -24.97485352 117.30712891 C-29.32383673 119.01960871 -31.60970146 121.86509689 -33.54296875 126.0078125 C-33.88328125 127.090625 -33.88328125 127.090625 -34.23046875 128.1953125 C-34.56046875 128.1953125 -34.89046875 128.1953125 -35.23046875 128.1953125 C-35.32373714 120.95352988 -35.39451842 113.71187978 -35.43771744 106.46961498 C-35.45846596 103.10558325 -35.48654466 99.7419667 -35.53222656 96.37817383 C-35.58109579 92.49810094 -35.6035188 88.61860724 -35.62109375 84.73828125 C-35.64173889 83.54824997 -35.66238403 82.35821869 -35.68365479 81.13212585 C-35.68691296 68.83430713 -32.19466693 59.25578992 -23.53515625 50.4765625 C-19.72431519 46.99041193 -16.01990282 45.20664613 -11.23046875 43.1953125 C-11.21588623 42.13094971 -11.20130371 41.06658691 -11.1862793 39.9699707 C-11.12817095 36.00934781 -11.0509393 32.04928602 -10.96801758 28.08911133 C-10.93482706 26.37729012 -10.90677686 24.66536102 -10.8840332 22.95336914 C-10.85037843 20.48797771 -10.79805901 18.02356969 -10.7421875 15.55859375 C-10.73579758 14.79694412 -10.72940765 14.03529449 -10.7228241 13.25056458 C-10.59895869 8.74272708 -10.04215985 5.76579946 -7.23046875 2.1953125 C-4.12961304 0.12807536 -3.50115194 -0.04966173 0 0 Z " fill="#F79581" transform="translate(211.23046875,-0.1953125)"/>
<path d="M0 0 C1.00088654 0.00007553 2.00177307 0.00015106 3.0329895 0.00022888 C4.1163559 0.00539017 5.19972229 0.01055145 6.31591797 0.01586914 C7.42289032 0.01728409 8.52986267 0.01869904 9.67037964 0.02015686 C13.2163154 0.02576767 16.7621887 0.03832203 20.30810547 0.05102539 C22.70784414 0.056039 25.1075838 0.06060215 27.50732422 0.06469727 C33.39927272 0.07574061 39.29118463 0.09248929 45.18310547 0.11352539 C44.42846369 4.33764058 43.09587732 7.60156286 41.12060547 11.42602539 C40.57275391 12.4946582 40.02490234 13.56329102 39.46044922 14.66430664 C39.03892578 15.47254883 38.61740234 16.28079102 38.18310547 17.11352539 C37.15427246 17.0914502 36.12543945 17.069375 35.06542969 17.04663086 C31.22939816 16.97762912 27.39561907 16.97480738 23.55908203 16.99145508 C21.90238864 16.9895144 20.24561414 16.96988437 18.58935547 16.93188477 C8.99894825 16.37029726 8.99894825 16.37029726 0.79077148 20.31860352 C-0.74144138 22.87933255 -1.81758695 25.30911755 -2.81689453 28.11352539 C-7.84738515 35.74599392 -16.07234063 40.08404012 -24.81689453 42.11352539 C-29.34443282 42.5038926 -33.84180939 42.46402827 -38.38330078 42.40649414 C-40.2952549 42.40012688 -40.2952549 42.40012688 -42.24583435 42.39363098 C-45.60464946 42.37975962 -48.96283152 42.35289397 -52.32147217 42.31951904 C-55.76064641 42.28861268 -59.19988653 42.27508211 -62.63916016 42.26000977 C-69.36524379 42.2270503 -76.09103269 42.17693306 -82.81689453 42.11352539 C-79.81689453 40.11352539 -79.81689453 40.11352539 -77.37939453 38.92602539 C-72.47050763 35.45388588 -70.90274053 30.85484778 -69.81689453 25.11352539 C-68.22989746 25.10736206 -68.22989746 25.10736206 -66.61083984 25.10107422 C-62.6294087 25.07905669 -58.64893449 25.02453962 -54.66796875 24.9609375 C-52.955498 24.93795239 -51.2428898 24.92340824 -49.53027344 24.91796875 C-36.82483651 24.86970146 -25.03677132 24.00079324 -15.27783203 14.78930664 C-12.16423688 11.21782985 -9.79535926 7.2215691 -7.80517578 2.93383789 C-5.97163523 -0.44335537 -3.51600563 -0.00883418 0 0 Z " fill="#F79580" transform="translate(433.81689453125,367.886474609375)"/>
<path d="M0 0 C2.20570967 0.00036431 4.41142089 -0.00164974 6.61712646 -0.00592041 C11.22006875 -0.00720958 15.82204982 0.01559896 20.42480469 0.05664062 C26.31163222 0.1078322 32.19695668 0.10548052 38.08392715 0.08603287 C42.63088963 0.07571938 47.17750893 0.09017749 51.72441864 0.11241913 C53.8948387 0.12075529 56.06529636 0.12228974 58.2357254 0.11676788 C61.27020766 0.11347157 64.30270314 0.14270929 67.33691406 0.18066406 C68.66810272 0.17019547 68.66810272 0.17019547 70.02618408 0.15951538 C76.20631621 0.28524962 80.47649148 1.84980986 85.234375 5.859375 C88.95117747 10.27003641 89.66208459 14.14096002 89.47265625 19.84375 C89.234375 21.859375 89.234375 21.859375 88.234375 24.859375 C86.914375 24.199375 85.594375 23.539375 84.234375 22.859375 C84.234375 22.199375 84.234375 21.539375 84.234375 20.859375 C79.93699999 19.11719594 76.36002704 17.73837108 71.69758606 17.70115662 C70.76790512 17.6913678 69.83822418 17.68157898 68.88037109 17.67149353 C67.86257568 17.66573807 66.84478027 17.6599826 65.79614258 17.65405273 C64.72281174 17.64415314 63.6494809 17.63425354 62.54362488 17.62405396 C58.98874126 17.59241559 55.43384427 17.56767219 51.87890625 17.54296875 C49.41696318 17.52240125 46.95502366 17.50140483 44.49308777 17.47999573 C38.00760773 17.42475404 31.52209571 17.37535396 25.03656006 17.32714844 C18.42082873 17.27694875 11.80514395 17.22125469 5.18945312 17.16601562 C-7.79553291 17.05840839 -20.78055866 16.95678257 -33.765625 16.859375 C-34.92633565 14.40139951 -35.79268774 12.52191664 -35.68060303 9.77789307 C-33.6185356 5.45416781 -29.15120042 3.3249475 -24.88471985 1.52311707 C-17.03170908 -0.93659992 -8.12567383 -0.08464584 0 0 Z " fill="#FECDBF" transform="translate(156.765625,273.140625)"/>
<path d="M0 0 C4.21966608 2.89348531 5.84311028 7.17269038 7 12 C8.13743035 20.38683583 6.04526011 27.69889545 1.171875 34.58203125 C-1.07046436 37.07844864 -3.14317888 38.63199902 -6 40.375 C-6.95519531 40.96152344 -7.91039062 41.54804688 -8.89453125 42.15234375 C-13.90992021 45.13634246 -18.93892961 48.09408 -24 51 C-23.41623087 54.24190238 -22.61498715 57.17829439 -21.4375 60.25 C-18.61665515 68.60191318 -19.40703958 77.60697369 -23.22265625 85.54296875 C-28.91116241 95.56990895 -35.83449646 101.88024087 -46.84765625 105.62890625 C-49.99270079 106.17115531 -53.06231392 106.09201561 -56.25 106.0625 C-57.51328125 106.05347656 -58.7765625 106.04445313 -60.078125 106.03515625 C-61.52445312 106.01775391 -61.52445312 106.01775391 -63 106 C-63 105.34 -63 104.68 -63 104 C-62.443125 103.79246094 -61.88625 103.58492188 -61.3125 103.37109375 C-51.99781201 99.61060316 -45.58341208 93.95848724 -41 85 C-40.6803125 84.39671875 -40.360625 83.7934375 -40.03125 83.171875 C-36.87675622 76.22030538 -36.79630239 68.07752565 -38.9375 60.82421875 C-39.65407613 58.94569451 -40.41192164 57.08203642 -41.22265625 55.2421875 C-42 53 -42 53 -41 50 C-39.12988281 48.63720703 -39.12988281 48.63720703 -36.703125 47.2578125 C-35.8265625 46.74863281 -34.95 46.23945313 -34.046875 45.71484375 C-33.12390625 45.19019531 -32.2009375 44.66554688 -31.25 44.125 C-22.53728472 39.16221758 -16.55864335 35.11728671 -12 26 C-10.90826613 22.01719309 -11.02351644 18.53655831 -11.375 14.4375 C-11.46523437 13.32246094 -11.55546875 12.20742187 -11.6484375 11.05859375 C-11.9307695 8.60230531 -12.31675041 6.36821257 -13 4 C-5.2826087 -0.93913043 -5.2826087 -0.93913043 0 0 Z " fill="#FEB09F" transform="translate(146,231)"/>
<path d="M0 0 C2.7917054 0.02319481 5.57891072 0.0822286 8.3694458 0.16351318 C9.1165834 0.16989304 9.86372101 0.17627289 10.63349915 0.18284607 C16.2737205 0.42991945 20.28882413 2.49941304 24.59210205 5.98773193 C28.31701605 10.38619729 29.01951724 14.27817988 28.8303833 19.97210693 C28.59210205 21.98773193 28.59210205 21.98773193 27.59210205 24.98773193 C24.59210205 23.98773193 24.59210205 23.98773193 22.71710205 22.05023193 C18.09094954 17.56014273 12.99290298 17.70126512 6.84210205 17.73236084 C5.97158203 17.72874039 5.10106201 17.72511993 4.2041626 17.72138977 C2.31900071 17.7145103 0.43381897 17.71198761 -1.45135498 17.71333694 C-4.43570399 17.71430344 -7.41969409 17.70134617 -10.4039917 17.68435669 C-18.88703662 17.63811512 -27.37004379 17.61346986 -35.85321045 17.60687256 C-41.04624953 17.60186044 -46.23891212 17.57762889 -51.43182373 17.54154587 C-53.40933981 17.53174396 -55.38690765 17.52941804 -57.36444092 17.53471756 C-60.12933682 17.54178124 -62.89310833 17.52452153 -65.65789795 17.50189209 C-66.88150024 17.51415077 -66.88150024 17.51415077 -68.12982178 17.5266571 C-72.09006192 17.46898703 -73.98262126 17.25760212 -77.41326904 15.08059692 C-79.55307798 12.83540175 -80.09242228 12.03537751 -80.03289795 8.98773193 C-80.04578857 8.32773193 -80.0586792 7.66773193 -80.07196045 6.98773193 C-79.03043509 3.85090263 -77.12357997 2.78793312 -74.40789795 0.98773193 C-71.24577332 0.46202087 -71.24577332 0.46202087 -67.64007568 0.42596436 C-66.9789679 0.41402039 -66.31786011 0.40207642 -65.63671875 0.38977051 C-63.45475639 0.35525004 -61.27370468 0.3488739 -59.0914917 0.34320068 C-57.55469457 0.3256414 -56.01791463 0.30651458 -54.4811554 0.28590393 C-51.25237386 0.24658387 -48.02383956 0.22008794 -44.79486084 0.20379639 C-40.71667161 0.183099 -36.63912176 0.14053718 -32.56120872 0.08970451 C-21.70621815 -0.04458149 -10.85552607 -0.03907873 0 0 Z " fill="#FECDBF" transform="translate(234.40789794921875,307.01226806640625)"/>
<path d="M0 0 C0.33 0 0.66 0 1 0 C1.00879936 1.55522118 1.00879936 1.55522118 1.01777649 3.14186096 C1.07505817 12.92606775 1.14784833 22.71005345 1.23571491 32.49403477 C1.2803896 37.52375744 1.31965219 42.55339966 1.34643555 47.58325195 C1.37249736 52.43985902 1.41292031 57.29615598 1.46318626 62.15257072 C1.47983549 64.00281853 1.49136186 65.85311994 1.49761391 67.70343208 C1.50727617 70.30074483 1.53536047 72.89726773 1.56762695 75.49438477 C1.56547432 76.63482742 1.56547432 76.63482742 1.5632782 77.79830933 C1.65275709 82.91100393 2.76210644 86.40040807 5 91 C5.33 91.99 5.66 92.98 6 94 C7.485 94.495 7.485 94.495 9 95 C9 95.66 9 96.32 9 97 C4.64950335 98.45016555 0.54665815 98.51070107 -4 98 C-10.13398476 94.93300762 -13.83411707 90.45769727 -16 84 C-16.24723816 81.24874878 -16.24723816 81.24874878 -16.24291992 78.22607422 C-16.24599655 77.0865329 -16.24907318 75.94699158 -16.25224304 74.7729187 C-16.24505753 73.5459024 -16.23787201 72.31888611 -16.23046875 71.0546875 C-16.23001053 69.77506134 -16.22955231 68.49543518 -16.2290802 67.17703247 C-16.22751704 64.46187927 -16.2192547 61.74685818 -16.20581055 59.03173828 C-16.18905639 55.61067956 -16.18507255 52.18976765 -16.18563652 48.76867294 C-16.18498615 34.15164383 -16.00770839 19.5856802 -15 5 C-13.72697021 5.19005615 -12.45394043 5.3801123 -11.14233398 5.57592773 C-7.80905946 6.10243293 -7.80905946 6.10243293 -4.72265625 4.78515625 C-3.90087891 3.93244141 -3.90087891 3.93244141 -3.0625 3.0625 C-1.53125 1.53125 -1.53125 1.53125 0 0 Z " fill="#F79581" transform="translate(260,153)"/>
<path d="M0 0 C0.70964401 -0.00861557 1.41928802 -0.01723114 2.1504364 -0.02610779 C4.48762903 -0.04873953 6.82361934 -0.04203281 9.16088867 -0.03295898 C10.79367934 -0.0381973 12.42646698 -0.04447455 14.05924988 -0.05174255 C17.479749 -0.06214267 20.89983205 -0.05759335 24.3203125 -0.04296875 C28.68841783 -0.02581504 33.0552035 -0.04923465 37.42316151 -0.08445835 C40.79571635 -0.10650168 44.16795911 -0.10497369 47.54056358 -0.09669304 C49.1500054 -0.09587665 50.75947086 -0.10268007 52.36884499 -0.11746407 C67.51208522 -0.23521416 67.51208522 -0.23521416 73.3625946 4.14442444 C77.35662688 8.09651801 78.97824893 11.64937172 79.07885742 17.28344727 C78.98702679 20.04803257 78.65587018 21.864909 77.76635742 24.53344727 C74.76635742 23.53344727 74.76635742 23.53344727 72.89135742 21.59594727 C68.62480284 17.45487959 64.34514767 17.28379083 58.5769043 17.27807617 C57.51984032 17.27264549 57.51984032 17.27264549 56.44142151 17.2671051 C54.91803782 17.26023513 53.39462965 17.25770115 51.87123108 17.25905228 C49.45813448 17.26002059 47.04547955 17.24704056 44.63244629 17.23007202 C37.77428564 17.18388492 30.91617227 17.15918784 24.05786133 17.15258789 C19.85681282 17.14757105 15.65622869 17.12331712 11.45533752 17.0872612 C9.85741464 17.07747121 8.25942783 17.07512692 6.66148376 17.08043289 C4.42575457 17.08751049 2.191409 17.07021085 -0.04418945 17.04760742 C-1.31484253 17.04475739 -2.58549561 17.04190735 -3.89465332 17.03897095 C-7.80261199 16.44730518 -9.46567009 15.30234839 -12.23364258 12.53344727 C-12.89770508 10.53344727 -12.89770508 10.53344727 -12.85864258 8.53344727 C-12.8715332 7.87344727 -12.88442383 7.21344727 -12.89770508 6.53344727 C-10.9207568 0.57934422 -5.49745774 0.02663533 0 0 Z " fill="#FECDBF" transform="translate(167.233642578125,341.466552734375)"/>
<path d="M0 0 C1.32644531 0.24556641 1.32644531 0.24556641 2.6796875 0.49609375 C4.18540387 2.80953247 5.36162849 4.9670415 6.5546875 7.43359375 C11.27510522 16.33053439 17.81960467 20.18862265 26.6796875 24.49609375 C26.58984375 27.27734375 26.58984375 27.27734375 25.6796875 30.49609375 C23.45598036 31.92023184 21.50299313 32.94428038 19.1171875 33.99609375 C10.66694853 38.17766639 7.57638542 44.21982179 3.6796875 52.49609375 C2.6796875 53.49609375 2.6796875 53.49609375 0.4296875 54.05859375 C-2.3203125 53.49609375 -2.3203125 53.49609375 -3.62109375 51.95703125 C-5.63363523 48.72948794 -7.36028574 45.41385522 -9.0234375 41.9921875 C-11.35628049 37.92106196 -14.40486348 36.19566572 -18.5078125 34.12109375 C-19.7725592 33.44740958 -21.03690383 32.77296984 -22.30078125 32.09765625 C-23.29722656 31.56914062 -24.29367187 31.040625 -25.3203125 30.49609375 C-26.3203125 29.49609375 -26.3203125 29.49609375 -26.8828125 27.24609375 C-26.3203125 24.49609375 -26.3203125 24.49609375 -24.81640625 23.23046875 C-22.02986093 21.50728221 -19.22151365 19.91858503 -16.25390625 18.52734375 C-9.12743619 14.84556665 -6.69630599 8.42421952 -3.3203125 1.49609375 C-2.3203125 0.49609375 -2.3203125 0.49609375 0 0 Z " fill="#FEDF78" transform="translate(379.3203125,178.50390625)"/>
<path d="M0 0 C2.27024968 -0.08097324 4.54132075 -0.13917704 6.8125 -0.1875 C8.07707031 -0.22230469 9.34164063 -0.25710937 10.64453125 -0.29296875 C14 0 14 0 15.60668945 1.20214844 C17.33069443 3.42670996 17.91059364 5.34308643 18.6484375 8.05859375 C18.92888916 9.07421387 19.20934082 10.08983398 19.49829102 11.13623047 C19.93226196 12.77035889 19.93226196 12.77035889 20.375 14.4375 C20.83507446 16.12190186 20.83507446 16.12190186 21.30444336 17.84033203 C23.15379852 24.66239775 24.88723741 31.50849162 26.5625 38.375 C28.21906143 45.11031974 30.0030136 51.79452889 32 58.4375 C32.22502197 59.22495605 32.45004395 60.01241211 32.68188477 60.82373047 C34.2158066 65.76966936 36.0777134 68.45536599 40 72 C40 72.66 40 73.32 40 74 C35.64950335 75.45016555 31.54665815 75.51070107 27 75 C22.06673538 72.53336769 18.26842159 69.17713388 16.18505859 63.95874023 C15.34791539 61.34205894 14.6001354 58.71245485 13.875 56.0625 C13.59003662 55.0528418 13.30507324 54.04318359 13.01147461 53.00292969 C11.988347 49.34041771 10.99145607 45.67117084 10 42 C9.79211853 41.2331488 9.58423706 40.46629761 9.37005615 39.6762085 C7.75209057 33.70488711 6.1528106 27.72874029 4.5625 21.75 C4.33536316 20.90027618 4.10822632 20.05055237 3.87420654 19.17507935 C3.22447316 16.73791676 2.58182647 14.29899924 1.94140625 11.859375 C1.74487961 11.12490646 1.54835297 10.39043793 1.34587097 9.63371277 C0.47052 6.26833361 0 3.50752596 0 0 Z " fill="#F79580" transform="translate(286,147)"/>
<path d="M0 0 C1.23912643 -0.00619858 2.47825287 -0.01239716 3.75492859 -0.01878357 C7.0449769 -0.02769871 10.33427878 -0.0165845 13.62426758 0.00030518 C15.63063621 0.00389537 17.63607607 -0.0099968 19.64233398 -0.03051758 C23.51199245 -0.06748504 27.38019823 -0.07001515 31.25 -0.0625 C32.43982986 -0.07575821 33.62965973 -0.08901642 34.85554504 -0.10267639 C41.8878267 -0.02429394 46.9889855 0.73697635 52.32421875 5.56640625 C56.02629489 9.99895456 56.75245862 13.8320269 56.5625 19.55078125 C56.32421875 21.56640625 56.32421875 21.56640625 55.32421875 24.56640625 C52.32421875 23.56640625 52.32421875 23.56640625 50.44921875 21.62890625 C46.65188429 17.9432581 42.86281974 17.31775081 37.6953125 17.31103516 C36.5906665 17.30407623 35.48602051 17.29711731 34.34790039 17.28994751 C33.16446045 17.29094452 31.98102051 17.29194153 30.76171875 17.29296875 C28.24869341 17.27268574 25.73567261 17.25183508 23.22265625 17.23046875 C19.26591154 17.20783629 15.30934561 17.19138431 11.35253906 17.18554688 C7.53027158 17.17604111 3.70880689 17.14229217 -0.11328125 17.10546875 C-1.88844116 17.11303696 -1.88844116 17.11303696 -3.69946289 17.12075806 C-11.90105853 17.02228328 -11.90105853 17.02228328 -15.91943359 14.65771484 C-17.80650779 12.41074826 -18.35745062 11.46787807 -18.30078125 8.56640625 C-18.31367188 7.90640625 -18.3265625 7.24640625 -18.33984375 6.56640625 C-15.70401888 -1.37207806 -6.76049725 -0.02803839 0 0 Z " fill="#FECDBF" transform="translate(172.67578125,375.43359375)"/>
<path d="M0 0 C0.87481018 -0.01283524 1.74962036 -0.02567047 2.65093994 -0.03889465 C4.05880768 -0.04997505 4.05880768 -0.04997505 5.49511719 -0.0612793 C6.46930603 -0.06935104 7.44349487 -0.07742279 8.44720459 -0.08573914 C10.5082421 -0.09955812 12.56930229 -0.11029003 14.63037109 -0.11816406 C16.73102556 -0.12968116 18.83165084 -0.1501286 20.93212891 -0.1796875 C23.97415981 -0.22248922 27.01532204 -0.23855102 30.05761719 -0.2487793 C30.98809875 -0.26628738 31.91858032 -0.28379547 32.8772583 -0.30183411 C39.96397222 -0.27847122 45.36299325 1.27850292 50.66699219 6.11450195 C51.54199219 8.17700195 51.54199219 8.17700195 51.10449219 10.67700195 C48.55467897 14.75670309 45.03616346 16.67894486 40.54199219 18.17700195 C39.06054618 18.2828399 37.57495013 18.33548413 36.08984375 18.35400391 C35.19170959 18.36683914 34.29357544 18.37967438 33.3682251 18.39289856 C31.91509918 18.40397896 31.91509918 18.40397896 30.43261719 18.4152832 C29.43244568 18.42335495 28.43227417 18.4314267 27.40179443 18.43974304 C25.28350555 18.45357681 23.16519445 18.46430213 21.046875 18.47216797 C17.81825125 18.48936211 14.59065654 18.53325303 11.36230469 18.57739258 C9.30241637 18.5875215 7.24251936 18.59603698 5.18261719 18.6027832 C4.2219635 18.62029129 3.26130981 18.63779938 2.27154541 18.65583801 C-4.92823585 18.63271025 -8.62774535 16.9300031 -14.45800781 12.73950195 C-15.45800781 11.17700195 -15.45800781 11.17700195 -15.52050781 8.80200195 C-14.00753149 5.06406045 -11.71357651 3.47505045 -8.45800781 1.17700195 C-5.61036067 0.24355522 -2.98569856 0.03835011 0 0 Z " fill="#FEDECE" transform="translate(310.4580078125,391.822998046875)"/>
<path d="M0 0 C0.8781134 -0.00960754 1.75622681 -0.01921509 2.66094971 -0.02911377 C4.08126495 -0.03548859 4.08126495 -0.03548859 5.53027344 -0.04199219 C6.5082489 -0.04769226 7.48622437 -0.05339233 8.49383545 -0.05926514 C10.56505248 -0.06871408 12.63628453 -0.0752487 14.70751953 -0.07910156 C17.86355133 -0.0887871 21.01892629 -0.11980347 24.17480469 -0.15136719 C26.18912375 -0.15789951 28.20344745 -0.16314908 30.21777344 -0.16699219 C31.15655334 -0.17933899 32.09533325 -0.19168579 33.06256104 -0.20440674 C39.87626344 -0.18144942 44.57844364 0.86522921 50.13964844 5.03613281 C51.63964844 7.16113281 51.63964844 7.16113281 51.70214844 9.66113281 C49.95489191 13.77232464 47.12576606 15.52132428 43.10253906 17.25341797 C38.49939652 18.46002287 34.1610075 18.48578142 29.42089844 18.49707031 C27.956745 18.50705551 27.956745 18.50705551 26.4630127 18.51724243 C24.40553667 18.52733777 22.34802811 18.53206042 20.29052734 18.53173828 C17.14984205 18.5361186 14.01055487 18.57249127 10.87011719 18.61035156 C8.86621572 18.616219 6.86230761 18.62018888 4.85839844 18.62207031 C3.92386841 18.63644135 2.98933838 18.65081238 2.02648926 18.6656189 C-4.98377995 18.61666271 -8.59466864 16.78125347 -13.73535156 11.91113281 C-14.27160156 11.33363281 -14.80785156 10.75613281 -15.36035156 10.16113281 C-14.00266953 5.27347748 -11.69000735 3.63522183 -7.36035156 1.16113281 C-4.58264485 0.23523057 -2.87122622 0.02540643 0 0 Z " fill="#FEDECE" transform="translate(301.3603515625,357.8388671875)"/>
<path d="M0 0 C3.08022244 1.38174695 6.03617839 2.94827573 9 4.5625 C9.7940625 4.96791016 10.588125 5.37332031 11.40625 5.79101562 C17.20191751 8.94482469 19.95172337 12.22555844 23 18 C23.67804688 19.05445313 24.35609375 20.10890625 25.0546875 21.1953125 C25.65539062 22.16210938 26.25609375 23.12890625 26.875 24.125 C27.49117188 25.09695313 28.10734375 26.06890625 28.7421875 27.0703125 C30.60368026 31.40608755 29.66399192 34.23026947 28.0546875 38.51953125 C26.84121836 40.87816166 25.69642006 42.95570645 24 45 C20.1875 46.0625 20.1875 46.0625 17 46 C16.34 44.96875 15.68 43.9375 15 42.875 C14.52691406 42.14667969 14.05382812 41.41835938 13.56640625 40.66796875 C12 38 12 38 10.58984375 34.73828125 C5.27298027 23.31268101 -3.00575289 19.13870247 -14.17749023 13.90112305 C-16 13 -16 13 -17 12 C-17.5625 9.25 -17.5625 9.25 -17 6 C-14.57128452 3.8770373 -11.87087021 2.44591273 -9 1 C-8.35546875 0.60296875 -7.7109375 0.2059375 -7.046875 -0.203125 C-4.1711115 -1.32269705 -2.95768755 -0.95714056 0 0 Z " fill="#FED05C" transform="translate(236,440)"/>
<path d="M0 0 C3.08022244 1.38174695 6.03617839 2.94827573 9 4.5625 C9.7940625 4.96791016 10.588125 5.37332031 11.40625 5.79101562 C17.20191751 8.94482469 19.95172337 12.22555844 23 18 C23.67804688 19.05445313 24.35609375 20.10890625 25.0546875 21.1953125 C25.65539062 22.16210938 26.25609375 23.12890625 26.875 24.125 C27.49117187 25.09695312 28.10734375 26.06890625 28.7421875 27.0703125 C30.60368026 31.40608755 29.66399192 34.23026947 28.0546875 38.51953125 C26.84121836 40.87816166 25.69642006 42.95570645 24 45 C20.1875 46.0625 20.1875 46.0625 17 46 C16.34 44.96875 15.68 43.9375 15 42.875 C14.52691406 42.14667969 14.05382812 41.41835937 13.56640625 40.66796875 C12 38 12 38 10.58984375 34.73828125 C5.27298027 23.31268101 -3.00575289 19.13870247 -14.17749023 13.90112305 C-16 13 -16 13 -17 12 C-17.5625 9.25 -17.5625 9.25 -17 6 C-14.57128452 3.8770373 -11.87087021 2.44591273 -9 1 C-8.35546875 0.60296875 -7.7109375 0.2059375 -7.046875 -0.203125 C-4.1711115 -1.32269705 -2.95768755 -0.95714056 0 0 Z " fill="#FED05C" transform="translate(113,164)"/>
<path d="M0 0 C0.920728 0.00007553 1.84145599 0.00015106 2.79008484 0.00022888 C4.27614983 0.00797081 4.27614983 0.00797081 5.79223633 0.01586914 C6.80900955 0.01728409 7.82578278 0.01869904 8.87336731 0.02015686 C12.12369721 0.02575832 15.37395846 0.03831107 18.62426758 0.05102539 C20.82674054 0.0560402 23.02921459 0.06060314 25.23168945 0.06469727 C30.63340865 0.07572823 36.03507647 0.09299385 41.43676758 0.11352539 C41.43676758 6.38352539 41.43676758 12.65352539 41.43676758 19.11352539 C35.45903163 19.01628482 29.48193993 18.9133634 23.50463867 18.79614258 C21.47377367 18.75800123 19.44284453 18.72312319 17.41186523 18.69165039 C14.48243377 18.64567599 11.55343825 18.58773648 8.62426758 18.52758789 C7.72498535 18.51603668 6.82570313 18.50448547 5.89916992 18.49258423 C-6.66254696 18.20245186 -6.66254696 18.20245186 -11.65698242 14.60571289 C-12.95906576 13.10831706 -14.26114909 11.61092122 -15.56323242 10.11352539 C-14.20555038 5.22587006 -11.89288821 3.58761441 -7.56323242 1.11352539 C-4.70836127 0.16190167 -2.95868925 -0.008106 0 0 Z " fill="#FEDECE" transform="translate(301.563232421875,323.886474609375)"/>
<path d="M0 0 C1.65 0.99 3.3 1.98 5 3 C4.835 3.886875 4.67 4.77375 4.5 5.6875 C4.02757645 9.22351867 3.76825578 12.74795915 3.625 16.3125 C3.57601562 17.33988281 3.52703125 18.36726563 3.4765625 19.42578125 C3.99167888 22.94318042 4.77657116 24.59647143 6.484375 27.62890625 C9.65162511 33.60879624 9.74512957 38.96181335 9.625 45.625 C9.65400391 47.24535156 9.65400391 47.24535156 9.68359375 48.8984375 C9.64241857 55.65116706 8.80189827 60.96214263 4 66 C1.1875 67 1.1875 67 -1 67 C-1.98783194 65.92456217 -2.96493943 64.83926783 -3.9375 63.75 C-4.48277344 63.14671875 -5.02804688 62.5434375 -5.58984375 61.921875 C-7.9568432 58.69593669 -8.12667416 55.46019714 -8.17700195 51.54199219 C-8.18983719 50.66718201 -8.20267242 49.79237183 -8.21589661 48.89105225 C-8.22328354 47.95247375 -8.23067047 47.01389526 -8.23828125 46.046875 C-8.246353 45.07268616 -8.25442474 44.09849731 -8.26274109 43.0947876 C-8.27656007 41.03375008 -8.28729198 38.97268989 -8.29516602 36.91162109 C-8.30668312 34.81096662 -8.32713056 32.71034135 -8.35668945 30.60986328 C-8.39949118 27.56783238 -8.41555297 24.52667015 -8.42578125 21.484375 C-8.45204338 20.08865265 -8.45204338 20.08865265 -8.47883606 18.66473389 C-8.4589011 12.61781969 -7.45368595 8.04326098 -4 3 C-1.75 1 -1.75 1 0 0 Z " fill="#FEDECE" transform="translate(235,122)"/>
<path d="M0 0 C4.46738659 2.23369329 6.69808106 4.5605849 9 9 C10.11089106 16.33482376 10.24902846 23.65325538 10.3125 31.0625 C10.34150391 32.19494141 10.37050781 33.32738281 10.40039062 34.49414062 C10.46293551 42.75487608 9.42743285 48.19174128 3.75 54.5 C3.1725 54.995 2.595 55.49 2 56 C-2.88765533 54.64231796 -4.52591098 52.32965579 -7 48 C-8.17747996 44.46756012 -8.19962907 41.22990461 -8.23828125 37.55078125 C-8.246353 36.81933395 -8.25442474 36.08788666 -8.26274109 35.33427429 C-8.27656363 33.78512935 -8.28729397 32.23595419 -8.29516602 30.68676758 C-8.30665732 29.11278269 -8.32706404 27.5388359 -8.35668945 25.96508789 C-8.66293573 9.68955237 -8.66293573 9.68955237 -4 3 C-1.75 1 -1.75 1 0 0 Z " fill="#FEDECE" transform="translate(201,117)"/>
<path d="M0 0 C1.36065073 0.02010015 2.7213302 0.03834471 4.08203125 0.0546875 C7.38832922 0.10158534 10.69425864 0.17332043 14 0.25 C14 6.19 14 12.13 14 18.25 C8.98267817 18.29603048 3.96609557 18.33581994 -1.05126953 18.35986328 C-2.75637298 18.3698914 -4.46145936 18.38351726 -6.16650391 18.40087891 C-8.62406642 18.42526803 -11.08140061 18.43651512 -13.5390625 18.4453125 C-14.29555084 18.45563507 -15.05203918 18.46595764 -15.83145142 18.47659302 C-20.27822943 18.47752561 -23.86910217 17.90121642 -28 16.25 C-27.52126863 11.22332059 -26.27675909 8.11489534 -23 4.25 C-15.63576461 -0.70721313 -8.66013886 -0.22053243 0 0 Z " fill="#FEDECE" transform="translate(329,289.75)"/>
<path d="M0 0 C6.94274778 3.3009232 11.02484709 6.27666244 14.82421875 12.92578125 C15.16364502 13.51512451 15.50307129 14.10446777 15.8527832 14.71166992 C17.9598703 18.80196498 18.22156874 21.47182086 16.94921875 25.86328125 C14.04140078 31.47121591 14.04140078 31.47121591 10.51171875 32.73828125 C6.27481127 31.29153235 4.98767011 27.65419228 2.94921875 23.86328125 C2.3871875 22.70699219 1.82515625 21.55070312 1.24609375 20.359375 C-1.08674924 16.28824946 -4.13533223 14.56285322 -8.23828125 12.48828125 C-9.50302795 11.81459708 -10.76737258 11.14015734 -12.03125 10.46484375 C-13.52591797 9.67207031 -13.52591797 9.67207031 -15.05078125 8.86328125 C-16.05078125 7.86328125 -16.05078125 7.86328125 -16.61328125 5.61328125 C-15.92309192 2.23902229 -15.15104793 1.86425958 -12.36328125 -0.01171875 C-7.72320101 -2.93033796 -4.93753102 -1.83972027 0 0 Z " fill="#FED05D" transform="translate(369.05078125,200.13671875)"/>
</svg>
